<?xml version="1.0" encoding="UTF-8" standalone="no"?>
<svg
   xmlns:dc="http://purl.org/dc/elements/1.1/"
   xmlns:cc="http://creativecommons.org/ns#"
   xmlns:rdf="http://www.w3.org/1999/02/22-rdf-syntax-ns#"
   xmlns:svg="http://www.w3.org/2000/svg"
   xmlns="http://www.w3.org/2000/svg"
   xmlns:sodipodi="http://sodipodi.sourceforge.net/DTD/sodipodi-0.dtd"
   xmlns:inkscape="http://www.inkscape.org/namespaces/inkscape"
   viewBox="0 0 1200 1200"
   height="1200"
   width="1200"
   id="svg891"
   version="1.1"
   sodipodi:docname="logo.svg"
   inkscape:version="0.92.3 (2405546, 2018-03-11)">
  <sodipodi:namedview
     pagecolor="#ffffff"
     bordercolor="#666666"
     borderopacity="1"
     objecttolerance="10"
     gridtolerance="10"
     guidetolerance="10"
     inkscape:pageopacity="0"
     inkscape:pageshadow="2"
     inkscape:window-width="961"
     inkscape:window-height="480"
     id="namedview48"
     showgrid="false"
     inkscape:zoom="0.19666667"
     inkscape:cx="600"
     inkscape:cy="600"
     inkscape:window-x="0"
     inkscape:window-y="0"
     inkscape:window-maximized="0"
     inkscape:current-layer="svg891" />
  <metadata
     id="metadata897">
    <rdf:RDF>
      <cc:Work
         rdf:about="">
        <dc:format>image/svg+xml</dc:format>
        <dc:type
           rdf:resource="http://purl.org/dc/dcmitype/StillImage" />
        <dc:title />
      </cc:Work>
    </rdf:RDF>
  </metadata>
  <defs
     id="defs895" />
  <circle
     r="500"
     style="fill:#cc0000;stroke:none;stroke-width:7.55905533;stroke-miterlimit:4;stroke-dasharray:none;stroke-opacity:1"
     id="path923"
     cx="600"
     cy="600" />
  <circle
     r="420"
     cy="600"
     cx="600"
     id="circle995"
     style="fill:#ff6600;stroke:none;stroke-width:6.04724407;stroke-miterlimit:4;stroke-dasharray:none;stroke-opacity:1" />
  <circle
     r="340"
     style="fill:#99cc33;stroke:none;stroke-width:4.83779526;stroke-miterlimit:4;stroke-dasharray:none;stroke-opacity:1"
     id="circle4700"
     cx="600"
     cy="600" />
  <circle
     r="260"
     cy="600"
     cx="600"
     id="circle4702"
     style="fill:#6699ff;stroke:none;stroke-width:3.87023616;stroke-miterlimit:4;stroke-dasharray:none;stroke-opacity:1" />
  <g
     transform="translate(438.04369,390.27171)"
     id="g1216">
    <path
       style="fill:#bfbfbf;stroke:#000000;stroke-width:0;stroke-miterlimit:4;stroke-dasharray:none;stroke-opacity:1"
       d="m 105.75812,272.25921 c -16.064574,0.4402 -32.506701,-0.48603 -48.337895,0.79883 -4.85276,8.61226 -8.560192,18.18033 -10.347656,27.85938 3.175796,2.56272 7.937889,-1.79943 11.728515,-1.14258 5.512709,-0.0478 9.985525,4.99231 15.751954,2.7539 22.274638,-4.06401 45.062582,-1.6896 67.558612,-3.88442 31.3002,-2.24857 62.86434,-2.12879 93.8277,3.17203 6.0246,0.24014 12.70264,2.23303 18.36759,0.76317 2.03713,-8.79111 5.34279,-17.27859 8.12891,-25.73437 -18.3144,-1.57255 -37.22295,-1.21398 -55.75349,-2.35309 -33.60736,-1.77948 -67.26092,-2.5815 -100.92424,-2.23285 z"
       id="path1191" />
    <path
       style="fill:#bfbfbf;stroke:#000000;stroke-width:0;stroke-miterlimit:4;stroke-dasharray:none;stroke-opacity:1"
       d="m 137.11554,316.42523 c -4.98248,0.89915 -11.39161,-0.55521 -15.52539,2.61914 -1.8832,8.45955 -3.73842,17.3427 -3.35938,25.99023 4.70742,4.35013 12.2574,1.97166 18.09336,2.89104 7.71114,2.84943 8.51557,-4.65982 9.89595,-10.19697 1.7925,-7.19465 4.8209,-14.34355 5.57905,-21.63743 -4.62903,-0.76571 -9.91374,0.40553 -14.68359,0.33399 z"
       id="path1193" />
    <path
       style="fill:#bfbfbf;stroke:#000000;stroke-width:0;stroke-miterlimit:4;stroke-dasharray:none;stroke-opacity:1"
       d="m 96.578428,582.13616 c -6.441723,-0.28606 -5.865224,7.74908 -6.15039,12.13477 -0.623683,13.09699 -0.625655,26.21371 -0.921875,39.32031 -4.638009,5.73662 -12.649045,4.50404 -18.855469,6.20118 1.282734,11.37329 4.591317,22.55071 4.080078,34.11132 5.813731,2.68859 13.144213,3.58947 19.831268,3.98633 5.53812,1.21791 9.90585,-0.60219 11.84715,-6.18113 6.63333,-10.76586 16.56063,-18.93446 24.25908,-28.8052 -0.96949,-3.36435 -6.48986,-1.0928 -9.16645,-1.61481 -4.33561,0.37857 -11.2638,1.73552 -12.24956,-4.25042 -1.66864,-14.72943 6.01387,-28.84811 13.44726,-41.12109 0.84771,-2.73928 6.33266,-7.14684 2.69922,-9.66602 -9.33917,-2.31316 -19.21172,-3.51276 -28.820312,-4.11524 z"
       id="path1195" />
    <path
       style="fill:#ffcc00;stroke:#000000;stroke-width:0;stroke-miterlimit:4;stroke-dasharray:none;stroke-opacity:1"
       d="m 72.730772,363.24632 c 1.112515,23.84879 -4.797223,47.08755 -6.885337,70.76982 -3.338131,25.15491 -8.400691,50.08243 -9.671603,75.48612 -0.827404,17.49382 -4.743875,34.5572 -6.403997,51.95304 -0.83757,5.68156 -0.425854,11.70514 6.992103,9.07221 31.324793,-1.06565 62.286822,5.07857 93.452852,7.37815 7.73755,-0.0438 15.72429,0.79465 23.3109,-0.0519 -0.0443,-25.88035 0.54636,-51.91389 5.85824,-77.39554 7.08283,-43.99839 28.58681,-83.58906 43.05582,-125.29977 -0.11053,-3.9685 -6.27978,-2.43633 -8.86909,-3.62199 -40.92738,-5.76373 -82.35577,-6.11883 -123.543383,-8.85957 -5.566856,0.30895 -12.412087,-1.76223 -17.296505,0.56945 z"
       id="path1187" />
    <g
       style="fill:#000000"
       transform="translate(-159,-11)"
       id="g1121">
      <path
         id="path1123"
         d="m 252.0347,705.5244 c -12.45668,-3.28589 -26.88825,-8.58653 -28.63522,-10.51756 -1.63885,-1.81152 -1.86713,-3.83546 -1.88415,-16.70557 -0.017,-12.87472 -0.35605,-15.87832 -2.80556,-24.85625 -3.81876,-13.99653 -2.21623,-16.66009 8.58293,-14.26563 2.8831,0.63926 6.81183,1.00822 8.73051,0.81992 4.14427,-0.40672 4.15184,-0.43525 6.05791,-22.84236 0.6784,-7.975 1.84548,-16.24408 2.59352,-18.37573 1.92024,-5.47204 1.84204,-5.62425 -2.88994,-5.62444 -2.3375,-10e-5 -7.85,-0.70551 -12.25,-1.56759 -4.4,-0.86208 -11.98136,-1.65457 -16.84748,-1.7611 -11.8441,-0.25928 -12.20635,-0.70985 -13.19269,-16.40917 -0.45859,-7.2993 -0.3157,-15.17671 0.3766,-20.76197 0.61355,-4.95 1.37948,-21.15 1.70205,-36 0.46023,-21.1868 1.09206,-30.22956 2.93461,-42 2.41561,-15.43116 4.87026,-35.43194 6.50457,-53 0.51165,-5.5 1.84784,-13.825 2.9693,-18.5 1.38666,-5.78051 2.04127,-11.89936 2.04604,-19.125 l 0.007,-10.625 -2.96875,-0.59375 c -6.73391,-1.34678 -9.22596,-8.2458 -4.56143,-12.6279 3.30146,-3.10156 15.36588,-4.19655 42.03017,-3.81474 l 20,0.28639 1.29608,-6 c 2.47488,-11.45709 4.04022,-18.00921 4.70384,-19.68901 0.78,-1.97442 0.0948,-2.11964 -18.1947,-3.85607 -6.70713,-0.63678 -14.54013,-0.83522 -17.40666,-0.44097 -9.85424,1.35531 -14.39314,0.88596 -19.7787,-2.04524 l -5.07481,-2.76205 -5.89757,2.64667 c -7.99575,3.58828 -11.27909,3.4674 -14.65056,-0.53937 -2.43548,-2.8944 -2.61915,-3.68001 -2.00662,-8.58258 0.99008,-7.92429 3.71172,-15.01814 9.95367,-25.94382 3.05582,-5.3488 5.55604,-10.69654 5.55604,-11.88388 0,-1.18733 0.5625,-2.59443 1.25,-3.12687 2.43191,-1.88343 27.96964,-5.4188 53.24999,-7.37177 24.30765,-1.87783 113.20173,1.07128 133.5,4.42894 4.675,0.77332 14.575,1.73123 22,2.12869 15.08516,0.80751 17,1.60919 17,7.11737 0,4.28006 -6.83578,23.25574 -9.24582,25.66578 -2.61452,2.61452 -5.22254,16.83317 -7.09325,13.48511 -14.26521,10.12909 -5.07921,-19.06949 -0.11979,-29.57346 l 0.74052,-2.34253 -9.89083,0.21617 c -9.62374,0.21033 -36.09504,-0.8286 -78.89083,-3.09626 -23.31414,-1.23537 -113.51011,-1.38811 -114.53032,-0.19395 -2.44946,2.8671 -10.69067,25.87144 -9.64348,26.91862 0.2517,0.2517 2.13623,-0.24372 4.18784,-1.10094 5.09285,-2.12793 9.10689,-1.95598 13.18563,0.56482 3.42893,2.11919 3.45296,2.11979 12.11804,0.30214 6.68971,-1.40329 12.28954,-1.76469 24.40015,-1.57474 8.92777,0.14003 28.5837,-0.68683 45.5,-1.91404 35.16328,-2.55094 50.03659,-2.22012 74.28214,1.65219 9.075,1.4494 19.98341,2.75538 24.24092,2.90219 9.00828,0.31064 12.19288,1.90951 14.42001,7.23979 1.26893,3.03697 1.2939,4.10081 0.16579,7.06481 -0.73045,1.91919 -2.59661,4.43653 -4.14703,5.59408 -3.56957,2.66507 -11.25034,2.56338 -29.4112,-0.38941 -22.01847,-3.58 -37.21917,-5.00041 -53.51236,-5.00041 H 317.0347 v 4.44924 c 0,2.44707 -0.92574,9.24633 -2.05721,15.10945 -1.13147,5.86312 -1.80867,10.90876 -1.50491,11.21253 0.30377,0.30377 10.34202,0.87519 22.30721,1.26984 19.82044,0.65373 22.4285,0.95057 29.33009,3.33824 4.16635,1.44138 8.89135,2.62421 10.5,2.6285 5.57312,0.0149 18.48399,3.69916 20.89268,5.96201 4.05749,3.81181 3.9816,6.30546 -0.4369,14.35619 -2.20627,4.01994 -6.02465,13.35362 -8.48529,20.74149 -2.46064,7.38788 -6.79235,19.05751 -9.62603,25.93251 -17.00929,41.26744 -19.22477,47.7453 -24.0311,70.26452 -5.51652,25.84674 -8.11507,48.64167 -8.44895,74.11563 -0.17042,13.0027 -0.71837,23.29863 -1.26927,23.84953 -0.53316,0.53316 -2.02709,0.90897 -3.31985,0.83513 -1.29276,-0.0738 -10.45047,-0.30748 -20.35047,-0.5192 -9.9,-0.21173 -20.80291,-0.78739 -24.22868,-1.27924 -4.26453,-0.61227 -6.34962,-0.55877 -6.6122,0.16968 -0.21094,0.58517 -0.16104,4.48123 0.11088,8.6579 0.5385,8.27141 -0.28292,11.68185 -6.4066,26.59944 -4.71902,11.49577 -4.62762,11.9914 2.3866,12.94178 3.1625,0.42849 9.68797,0.73397 14.50104,0.67883 8.5802,-0.0983 8.80115,-0.0407 11.31866,2.95121 4.31523,5.12835 2.25137,9.26881 -7.60451,15.25594 -5.68042,3.45067 -21.96519,19.44868 -21.96519,21.5784 0,1.7753 -8.56741,13.35866 -12.04442,16.28437 -3.62851,3.0532 -8.99517,3.34716 -17.95558,0.98353 z m 10.59424,-20.62428 c 1.15183,-1.78374 3.49996,-5.51017 5.21807,-8.28096 1.71811,-2.77078 7.19745,-9.02403 12.17631,-13.89611 4.97887,-4.87208 8.93073,-8.96175 8.78193,-9.08816 -0.85663,-0.72768 -11.94246,-1.00881 -12.37203,-0.31373 -0.28411,0.45968 -1.84661,0.83579 -3.47223,0.83579 -2.26148,0 -3.4211,-0.76333 -4.93725,-3.25 -2.81433,-4.61585 -2.49772,-10.5264 1.13196,-21.13131 3.83535,-11.20583 6.94425,-17.46643 11.99635,-24.1579 3.70239,-4.90377 4.76776,-7.44548 3.13265,-7.47376 -0.4125,-0.007 -6.375,-0.9013 -13.25,-1.98703 -18.48077,-2.91857 -18.53288,-2.91217 -19.88128,2.44282 -0.64446,2.55936 -1.11872,13.151 -1.11872,24.98422 v 20.54141 l -2.75,3.06065 c -2.45083,2.72769 -3.54414,3.1264 -10.04973,3.66499 -6.16417,0.51031 -7.1989,0.85335 -6.65154,2.20512 1.81226,4.47558 4.46115,20.3314 4.2769,25.60079 l -0.2098,6 7.94209,1.6406 c 4.36814,0.90233 10.19208,1.68676 12.94208,1.74317 4.5903,0.0942 5.17161,-0.16319 7.09424,-3.1406 z m 68.57528,-113.50518 c -0.38912,-19.73894 1.89826,-40.69049 7.44988,-68.23799 4.10995,-20.39389 9.10825,-36.4016 18.10802,-57.99335 3.55487,-8.52866 8.90738,-21.80665 11.89446,-29.50665 2.98708,-7.7 6.80471,-17.15 8.48363,-21 1.67891,-3.85 3.26745,-7.50336 3.53008,-8.11858 0.54131,-1.268 -2.68541,-2.34296 -7.13559,-2.37718 -1.65,-0.0127 -7.39325,-0.91123 -12.76278,-1.99678 -6.61374,-1.33707 -17.41937,-2.2967 -33.5,-2.97506 -13.05547,-0.55074 -31.38722,-1.47649 -40.73722,-2.05722 -33.12238,-2.05722 -48.9968,-2.9752 -51.48293,-2.97714 l -2.51707,-0.002 0.3125,11.61818 c 0.23463,8.723 -0.18602,14.01885 -1.68806,21.25196 -1.10031,5.29858 -2.28129,13.00879 -2.62441,17.13379 -0.34311,4.125 -1.2807,12.45 -2.08353,18.5 -0.80282,6.05 -1.92201,14.6 -2.48709,19 -0.56507,4.4 -1.93412,12.275 -3.04232,17.5 -1.10821,5.225 -2.42169,14.9 -2.91885,21.5 -2.65442,35.23876 -3.9791,47.75529 -5.82089,55 -1.11859,4.4 -2.12411,11.825 -2.23449,16.5 l -0.20068,8.5 3.39391,-0.24351 c 17.11823,-1.22823 40.47277,0.57448 85.89391,6.63007 3.575,0.47662 12.35,0.92257 19.5,0.99099 l 13,0.12441 -0.33048,-16.76397 z M 305.62898,343.20037 c 2.37924,-7.95112 4.14629,-14.63618 3.92677,-14.85571 -0.21953,-0.21952 -6.49879,-0.0724 -13.95394,0.32686 l -13.55479,0.72599 -0.9858,3.66095 c -0.82635,3.06885 -2.46123,13.73512 -3.31051,21.59849 -0.19241,1.78155 0.54858,2.065 6.78399,2.59511 3.85,0.32731 9.19788,0.55231 11.88419,0.5 l 4.88419,-0.0951 4.3259,-14.45658 z"
         style="fill:#000000;fill-opacity:1" />
    </g>
  </g>
  <g
     transform="translate(89.043692,107.27171)"
     id="g1221">
    <path
       style="fill:#404040;stroke:#000000;stroke-width:0;stroke-miterlimit:4;stroke-dasharray:none;stroke-opacity:1"
       d="m 313.74835,449.40452 c -12.21941,-0.0447 -23.94097,9.15713 -24.97656,21.6836 -4.10819,22.56062 -8.33131,45.46713 -7.88086,68.44336 18.91257,29.5 37.62803,59.17153 59.03515,86.95117 4.81801,6.16263 8.35529,13.72588 14.41407,18.72851 17.36333,-6.76171 34.04601,-15.65492 51.54269,-22.31582 15.74555,-6.50247 30.77763,-16.51471 39.0159,-31.89902 8.26851,-12.43983 12.97674,-27.43774 21.96094,-39.08008 -7.09831,-11.76059 -11.54149,-25.55084 -21.16016,-35.58984 -23.40911,-16.74779 -50.49533,-27.36696 -75.88233,-40.67426 -15.41605,-6.64531 -28.41535,-17.6707 -43.69384,-24.47613 -3.9385,-1.4734 -8.1922,-1.9282 -12.375,-1.77149 z"
       id="path1183" />
    <g
       style="fill:#000000"
       transform="translate(-352,170)"
       id="g1102">
      <path
         id="path1104"
         d="m 708.27071,485.71699 c -1.22612,-0.23686 -3.25112,-1.76941 -4.5,-3.40567 -5.97344,-7.82625 -15.24787,-18.45542 -25.50173,-29.22686 -10.03132,-10.53767 -19.16743,-22.71448 -29.65976,-39.53121 -1.58993,-2.54828 -7.21493,-11.04684 -12.5,-18.88567 -13.95115,-20.69241 -13.35306,-19.13424 -13.87949,-36.15923 -0.32552,-10.52721 0.0181,-17.78973 1.23448,-26.08834 0.92707,-6.325 2.11805,-15.325 2.64663,-20 2.12797,-18.82059 7.17225,-31.30045 15.09352,-37.3423 9.03942,-6.8947 22.59196,-10.36762 33.5973,-8.60951 8.66697,1.38456 14.2207,3.66412 24.19834,9.93237 21.59645,13.56753 22.68183,14.11902 61.22002,31.10633 21.98525,9.69092 47.32463,25.02306 52.94819,32.03746 1.92943,2.40661 5.44402,7.97565 7.81022,12.37565 C 831.09188,370.72621 836,380.66956 836,382.35219 c 0,0.98896 -0.93399,2.98548 -2.07554,4.43672 -1.14154,1.45124 -2.2141,4.12951 -2.38346,5.95172 -0.6088,6.55052 -9.81125,25.69231 -18.74637,38.99389 -14.5402,21.64577 -28.96075,31.49735 -64.18737,43.85043 -29.99817,10.51958 -33.62046,11.42946 -40.33655,10.13204 z m 15.02256,-19.19475 c 8.9137,-4.34377 20.25673,-9.35519 25.20673,-11.13648 15.58621,-5.60881 27.59418,-12.34243 36.35404,-20.38598 6.71249,-6.1636 17.16393,-23.00547 23.11551,-37.24928 7.88383,-14.74375 10.50644,-13.59465 2.53045,-29.02952 -3.85,-7.45039 -8.2104,-15.24968 -9.68978,-17.33177 -5.10567,-7.18576 -25.2863,-18.94754 -60.81022,-35.44175 -25.79972,-11.97913 -32.35615,-15.50288 -46.37608,-24.92473 -13.99462,-9.40484 -18.63583,-11.08525 -28.63998,-10.36946 -13.9085,0.99515 -21.38616,8.05349 -23.75739,22.42516 -6.65493,40.3346 -8.71528,63.56644 -6.02928,67.98423 0.7165,1.17845 4.99694,7.70345 9.51209,14.5 4.51514,6.79654 10.36514,15.83282 13,20.08062 9.94522,16.03324 19.03895,29.03158 29.48611,42.14665 2.58252,3.24201 7.74026,10.56005 11.46166,16.26232 3.7214,5.70227 7.14041,10.36776 7.5978,10.36776 0.45739,0 8.12465,-3.554 17.03834,-7.89777 z"
         style="fill:#000000;fill-opacity:1" />
    </g>
  </g>
  <path
     id="path1062"
     d=""
     style="fill:#000000" />
  <path
     id="path1060"
     d=""
     style="fill:#000000" />
  <g
     id="g848"
     transform="translate(1052.7449,635.04241)">
    <path
       style="fill:#404040;stroke:#000000;stroke-width:0;stroke-miterlimit:4;stroke-dasharray:none;stroke-opacity:1"
       d="m -249.10712,-34.615007 c -14.97936,1.018815 -27.79355,10.139792 -41.00195,16.402344 -24.15554,14.3471811 -48.94614,28.463658 -76.28971,35.701284 -13.16377,4.241181 -30.00386,7.74989 -35.52474,22.335825 -3.40759,4.985867 -3.49541,11.506718 0.4121,16.25 15.38733,25.331795 33.72277,48.776064 53.50391,70.787104 13.70025,13.021 32.0282,20.21366 50.2168,24.23047 5.8196,0.61276 6.18688,-7.09348 10.04957,-9.79286 11.46676,-13.81888 26.50154,-26.97188 28.27074,-46.035259 2.99124,-18.17373 0.70112,-38.712533 13.175,-53.816232 9.94246,-14.354925 23.16023,-26.078697 36.08281,-37.7599419 4.25683,-5.527611 3.16585,-13.623049 1.70508,-20.0039061 -4.04615,-10.886942 -16.94697,-14.562931 -27.17383,-16.943359 -4.43191,-0.773016 -8.91409,-1.449528 -13.42578,-1.355469 z"
       id="path1177" />
    <path
       id="path1066"
       d="m -310.5,170.99487 c -20.40766,-6.75485 -35.70413,-15.22156 -47.59319,-26.34319 -4.12481,-3.85855 -10.44614,-11.89842 -17.43851,-22.1794 -6.03256,-8.86976 -12.79244,-18.76295 -15.02195,-21.98488 -20.74429,-32.075285 -33.39581,-59.262059 -0.38258,-82.99131 7.8068,-5.23197 28.14372,-15.80126 33.72672,-17.5281 6.1627,-1.90614 35.13404,-17.28029 46.20951,-24.52189 20.61447,-13.47859 46.61762,-25.24598 59.03827,-26.71703 2.65773,-0.31476 9.24888,-0.0182 14.64699,0.65901 23.33452,2.92745 39.22003,11.95681 45.70908,25.98113 1.755,3.79294 2.10566,6.46594 2.10566,16.0508 0,10.62411 -0.21749,11.94292 -2.8555,17.31531 -2.32222,4.72927 -4.56326,7.18488 -12,13.14893 -9.82312,7.87787 -16.35599,14.36566 -24.45884,24.29003 -10.61187,12.99743 -11.67624,16.27917 -13.05295,40.24573 -0.99113,17.25407 -1.84504,20.594 -8.94841,35 -3.86265,7.83364 -6.37363,11.26397 -14.31525,19.55649 -5.29703,5.53107 -10.55164,11.86117 -11.67692,14.0669 -1.12527,2.20572 -2.75384,4.5979 -3.61904,5.31595 -0.8652,0.71805 -1.57309,2.3978 -1.57309,3.73276 0,6.16993 -5.65052,11.38808 -12.20034,11.2668 -1.81481,-0.0336 -9.14966,-1.99742 -16.29966,-4.36404 z m 17.86433,-25.11553 c 1.23943,-3.01373 4.96818,-7.62122 11.12456,-13.74625 10.21659,-10.16456 13.88722,-15.50136 18.37849,-26.72086 2.70105,-6.74739 3.11313,-9.2794 4.06868,-25 1.42319,-23.41427 2.85363,-27.81836 13.8209,-42.55249 7.77709,-10.44825 18.42513,-21.63007 27.08213,-28.43973 3.84563,-3.025 7.59254,-6.58147 8.32648,-7.90328 1.89072,-3.40515 1.62618,-15.80326 -0.41998,-19.68307 -3.38091,-6.41068 -13.19962,-11.76819 -25.63166,-13.98574 -10.60156,-1.89105 -16.86657,-1.74934 -23.4958,0.53145 -9.74942,3.35429 -31.77027,14.42107 -41.15142,20.68103 -11.40918,7.61322 -20.5763,12.59125 -31.39184,17.04672 -4.71618,1.94284 -9.02487,3.88083 -9.57487,4.30666 -2.01552,1.56049 -16.27595,6.22067 -26.29917,8.59434 -12.10653,2.86703 -24.57027,8.79076 -28.92026,13.74512 -5.96946,7.986541 -7.86817,15.93508 -3.67012,22.90706 8.24351,13.69824 23.52451,35.63063 29.34719,42.1212 3.38548,3.77382 9.75997,11.53076 14.16552,17.23764 10.91927,14.14467 18.99669,20.41984 35.28872,27.41503 7.38721,3.17179 22.19423,7.74769 25.58812,7.90765 0.87085,0.041 2.28197,-1.83068 3.36433,-4.46248 z"
       style="fill:#000000;fill-opacity:1" />
  </g>
  <g
     transform="translate(174.99997,152.48026)"
     id="text844"
     style="font-style:normal;font-variant:normal;font-weight:normal;font-stretch:normal;font-size:40px;line-height:1.25;font-family:Fontania;-inkscape-font-specification:Fontania;letter-spacing:0px;word-spacing:0px;fill:#ffffff;fill-opacity:1;stroke:#000000;stroke-width:11.33858299;stroke-miterlimit:4;stroke-dasharray:none;stroke-opacity:1"
     aria-label="fRENTly">
    <path
       id="path965"
       style="font-size:266.66665649px;fill:#ffffff;fill-opacity:1;stroke:#000000;stroke-width:11.33858299;stroke-miterlimit:4;stroke-dasharray:none;stroke-opacity:1"
       d="m 78.506892,638.25227 q 1.066667,0.53333 4,0.8 2.933333,0.26667 4.533333,1.06667 1.866667,0.53333 1.866667,2.66666 -0.266667,1.33334 -1.066667,2.4 -0.533333,0.8 -1.866667,1.06667 -1.333333,0.26667 -2.399999,0.53333 -1.066667,0 -2.933334,0.26667 -1.866666,0 -2.4,0 -12.799999,1.06667 -20.533332,7.46666 -7.733333,6.13334 -11.466666,18.66667 -1.866667,5.86667 -4.533334,12.53333 -2.666666,6.66667 -6.399999,14.4 -3.466667,7.73334 -5.333333,12.26667 -2.133334,5.86667 -0.8,7.73333 1.333333,1.86667 7.733333,1.33334 5.866666,-0.26667 19.199999,0.26666 4.8,0 4.533333,3.2 -0.266667,2.13334 -4.533333,2.13334 -16.799999,0.53333 -26.399999,4.26666 -0.533333,0 -1.6,0.26667 -1.066667,0.26667 -1.6,0.53333 -0.533333,0.26667 -1.066667,1.06667 -0.266666,0.53333 0,1.6 0.266667,0.8 1.066667,1.06667 0.8,0.26666 2.4,0 1.6,-0.53334 1.6,-0.53334 2.933333,-0.53333 8.533333,-1.6 5.866666,-1.33333 10.399999,-1.86666 4.8,-0.53334 9.066667,-0.26667 0,0 1.066666,0 1.333334,0 1.6,0.26667 0.533334,0 1.333334,0.26666 0.8,0.26667 1.066666,0.8 0.533334,0.26667 0.533334,1.06667 0,0.8 -0.533334,1.33333 -0.266666,0.26667 -0.8,0.53334 -0.533333,0 -1.333333,0.26666 -0.533333,0 -1.333333,0 -0.533334,-0.26666 -1.333334,0 -3.466666,0 -6.933333,1.06667 -3.466666,1.06666 -7.999999,2.66666 -4.266667,1.6 -6.666667,2.4 -0.533333,0.26667 -1.866666,0.8 -1.066667,0.53334 -2.133334,0.8 -1.066666,0.26667 -1.866666,0.26667 -4.533333,-0.26667 -8,1.33333 -3.466666,1.33334 -5.866666,4.26667 -2.133334,2.93333 -3.466667,5.86667 -1.333333,2.66666 -2.666666,7.2 -0.266667,1.33333 -2.9333336,9.6 -2.3999999,8 -3.4666666,11.2 -0.7999999,2.93333 -2.1333332,9.06666 -1.3333333,5.86667 -1.86666661,10.66667 -0.26666666,2.13333 -1.33333328,3.46667 -1.06666661,1.33333 -3.19999991,2.4 -2.1333332,1.33333 -2.9333332,1.86666 -0.8,0.8 -1.8666666,0.53334 -0.8,-0.26667 -1.3333333,-0.8 -0.5333337,-0.53334 -1.3333337,-1.6 -0.8,-1.06667 -1.333333,-1.33334 0,0 -0.266666,-0.26666 0,0 0,-0.26667 -8,-4.53333 -11.466667,-10.66667 -3.466666,-6.4 -3.2,-13.06666 0,-6.66667 2.666667,-15.46667 1.6,-5.6 3.466667,-11.2 1.866666,-5.86667 3.466666,-10.66667 1.866667,-5.06666 4.266667,-11.19999 2.399999,-6.4 3.9999994,-10.4 1.8666666,-4.26667 4.5333331,-10.93334 2.9333333,-6.93333 4.53333321,-10.4 1.59999989,-3.73333 4.79999979,-10.93333 3.1999999,-7.46667 4.5333332,-10.4 1.3333333,-2.93333 4.8000003,-10.66667 3.733333,-8 4.799999,-10.66666 5.333333,-11.73333 6.4,-18.66667 1.6,-11.73333 14.666666,-12.53333 2.4,-0.26667 4.8,-0.8 2.666667,-0.53333 5.6,-1.33333 3.2,-1.06667 4.8,-1.6 13.866666,-3.2 22.399999,-0.26667 -3.2,0.8 -9.333333,1.6 -5.866667,0.8 -10.666666,1.86667 -4.8,1.06666 -9.066667,3.2 1.066667,1.06666 2.133333,1.33333 1.066667,0.26667 1.6,0.26667 0.8,0 1.866667,-0.26667 1.333333,-0.53333 1.6,-0.53333 14.133333,-3.2 21.066666,-2.93334 6.133333,0.53334 6.933333,4.26667 0.533333,1.86667 -2.133333,2.66667 -2.4,0.53333 -2.666667,1.33333 z" />
    <path
       id="path967"
       style="font-size:266.66665649px;fill:#ffffff;fill-opacity:1;stroke:#000000;stroke-width:11.33858299;stroke-miterlimit:4;stroke-dasharray:none;stroke-opacity:1"
       d="m 159.14439,785.45226 c 0.17777,0.17778 0.35555,0.35556 0.53333,0.53334 -0.17778,0 -0.35556,-0.0889 -0.53333,-0.26667 z m 84.79999,-178.39999 c 1.42223,1.77778 1.15556,4 -0.8,6.66667 0,0.88889 -0.0889,1.77777 -0.26666,2.66666 0,0.71111 -0.0889,1.42223 -0.26667,2.13334 0,0.71111 -0.17778,1.51111 -0.53333,2.4 -0.17778,0.88889 -0.35556,1.6 -0.53334,2.13333 -0.17777,0.53333 -0.44444,1.33333 -0.8,2.4 -0.35555,0.88889 -0.62222,1.6 -0.8,2.13333 -0.17777,0.35556 -0.53333,1.06667 -1.06666,2.13334 -0.53333,0.88889 -0.88889,1.51111 -1.06667,1.86666 l -1.06667,2.13334 c -0.53333,1.06667 -0.88888,1.77778 -1.06666,2.13333 -1.95555,3.73333 -4.53333,7.37778 -7.73333,10.93333 -1.06667,1.24445 -2.57778,3.02222 -4.53334,5.33333 -1.95555,2.31111 -3.82222,4.44445 -5.6,6.4 -1.6,1.77778 -3.2,3.37778 -4.8,4.8 -7.11111,6.57778 -14.04444,13.51111 -20.8,20.8 -1.95555,2.31111 -7.46666,7.28889 -16.53333,14.93334 -6.4,5.51111 -10.93333,8.97777 -13.6,10.4 -1.06667,0.53333 -1.68889,1.51111 -1.86667,2.93333 -0.17777,1.42222 0.0889,2.84444 0.8,4.26667 0.35556,0.88889 1.33334,3.11111 2.93334,6.66666 1.77777,3.37778 3.11111,6.04445 4,8 3.02222,7.64445 7.2,16.53334 12.53333,26.66667 4.44445,8.17777 8.71111,14.31111 12.8,18.4 0.53333,0.53333 1.33333,1.42222 2.4,2.66666 1.24445,1.24445 2.22222,2.22223 2.93333,2.93334 0.71111,0.53333 1.6,1.33333 2.66667,2.4 1.06667,0.88889 2.13333,1.68889 3.2,2.4 l 3.2,1.6 c 1.42222,0.71111 1.86666,2.22222 1.33333,4.53333 -0.35555,0 -0.97777,0.0889 -1.86666,0.26667 h -2.13334 c -0.53333,0 -0.97778,-0.0889 -1.33333,-0.26667 -0.88889,-0.71111 -1.68889,-1.06667 -2.4,-1.06667 -0.71111,0 -1.24445,0.0889 -1.6,0.26667 -0.17778,0 -0.71111,0.44444 -1.6,1.33333 l -1.06667,1.06667 c -0.17777,0.17778 -0.35555,0.53334 -0.53333,1.06667 0,0.35555 -0.17778,0.71111 -0.53333,1.06666 -0.17778,0.17778 -0.53334,0.35556 -1.06667,0.53334 0.53333,0.17777 1.24444,0.53333 2.13333,1.06666 0.88889,0.53333 1.60001,0.88889 2.13334,1.06667 0.71111,0.17778 1.42222,0.17778 2.13333,0 1.06667,-0.17778 1.6,0.17778 1.6,1.06667 0,0.88889 -0.71111,1.33333 -2.13333,1.33333 h -2.93334 -3.2 c -2.48889,0.17778 -4.08889,0.53334 -4.8,1.06667 -0.88889,0.35555 -1.6,0.53333 -2.13333,0.53333 -0.53333,0 -1.33333,-0.17778 -2.4,-0.53333 -1.06667,-0.53333 -1.77778,-0.88889 -2.13333,-1.06667 -7.64445,-1.42222 -14.31111,-3.55555 -20,-6.4 -1.77778,-0.88889 -3.37778,-2.04444 -4.8,-3.46667 -7.64445,-7.11111 -14.48889,-16.79999 -20.53333,-29.06666 -6.22223,-12.44445 -10.40001,-22.04445 -12.53334,-28.8 -0.17777,-0.71111 -0.71111,-1.06667 -1.6,-1.06667 -0.88889,0 -1.68889,0.44445 -2.4,1.33334 -0.35555,0.35555 -0.62222,0.8 -0.8,1.33333 v 1.6 c 0,0.53333 -0.0889,1.06667 -0.26666,1.6 0,0.53333 -0.0889,1.06667 -0.26667,1.6 -0.17778,0.35555 -0.53334,0.71111 -1.06667,1.06666 -2.31111,11.37778 -3.55555,17.51111 -3.73333,18.4 -0.35555,1.42223 -1.06666,3.91112 -2.13333,7.46667 -1.06667,3.55555 -1.77778,6.31111 -2.13334,8.26667 0,0.35555 -0.62222,2.75555 -1.86666,7.2 -1.06667,4.44444 -1.51111,7.91111 -1.33334,10.4 v 1.33333 1.06667 c 0.17778,0.35555 0.44445,0.97777 0.8,1.86666 0.35556,0.71111 0.53334,1.24445 0.53334,1.6 0.17777,0.17778 0.0889,0.44445 -0.26667,0.8 -0.71111,0.17778 -1.86667,0.97778 -3.46667,2.4 -1.6,1.42223 -3.11111,2.22223 -4.53333,2.4 -4.088889,0.17778 -7.111111,-0.88889 -9.066666,-3.2 -1.777778,-1.95555 -4,-4.17777 -6.666667,-6.66666 -3.022222,-2.84445 -4.177777,-6.13334 -3.466666,-9.86667 1.244444,-6.75555 2.133333,-10.93333 2.666666,-12.53333 0.355556,-1.42223 0.711112,-2.93334 1.066667,-4.53334 0.355555,-1.77777 0.711111,-3.46666 1.066667,-5.06666 0.533333,-1.77778 0.977778,-3.37778 1.333333,-4.8 0.711111,-2.48889 1.6,-6.04445 2.666667,-10.66667 1.244444,-4.8 2.399999,-9.06667 3.466666,-12.8 1.066667,-3.73333 2.222222,-7.28889 3.466667,-10.66666 0.533333,-1.42223 1.155555,-3.37778 1.866666,-5.86667 0.88889,-2.66667 1.6,-4.53333 2.13333,-5.6 0.71111,-2.13333 0.53334,-4.08889 -0.53333,-5.86667 -0.71111,-1.6 -0.800001,-4.26667 -0.26667,-8 0.17778,-1.6 0.88889,-2.93333 2.13334,-4 0.53333,-0.35555 1.33333,-0.44444 2.4,-0.26666 1.06667,0 1.86667,-0.17778 2.4,-0.53334 0.71111,-2.66667 2.04444,-6.31111 4,-10.93333 2.13333,-4.62222 3.46667,-7.82222 4,-9.6 0.17777,-0.53333 2.93333,-7.46667 8.26666,-20.8 0.35556,-0.88889 3.11112,-7.64444 8.26667,-20.26666 -0.71111,-0.35556 -1.15556,-0.62223 -1.33333,-0.8 -1.77778,2.66667 -3.82223,6.84444 -6.13334,12.53333 -2.13333,5.51111 -3.82222,9.33333 -5.06666,11.46666 -0.35556,-0.71111 -0.44445,-1.59999 -0.26667,-2.66666 0.17778,-1.24445 0.35556,-2.22223 0.53333,-2.93334 0.35556,-0.71111 0.71112,-1.59999 1.06667,-2.66666 0.53333,-1.24445 0.88889,-2.22222 1.06667,-2.93333 h -1.6 c -0.71111,-0.17778 -1.24445,-0.17778 -1.6,0 -0.35556,0.17777 -0.71112,0.71111 -1.06667,1.6 -4.44445,9.42222 -7.73334,17.15555 -9.86667,23.19999 -0.35555,0.88889 -0.71111,1.77778 -1.06666,2.66667 -0.35556,0.88889 -0.71112,1.68889 -1.06667,2.4 -0.35555,0.71111 -0.8,1.6 -1.33333,2.66667 -0.35556,0.88889 -0.71112,1.68889 -1.06667,2.4 -5.155555,14.04444 -8.177777,22.57777 -9.066666,25.6 -0.177778,0.35555 -0.355556,0.8 -0.533334,1.33333 -0.177777,0.35555 -0.355555,0.71111 -0.533333,1.06667 -0.177778,0.35555 -0.355556,0.8 -0.533333,1.33333 -0.177778,0.53333 -0.177778,0.97778 0,1.33333 l -0.8,0.53334 c -0.177778,0.17777 -0.355556,0.17777 -0.533333,0 -0.888889,-0.17778 -1.244445,-0.62223 -1.066667,-1.33334 0.355555,-0.53333 0.711111,-1.15555 1.066667,-1.86666 0.355555,-0.88889 0.622222,-1.68889 0.8,-2.4 0.355555,-0.88889 0.622222,-1.60001 0.799999,-2.13334 0.711111,-3.02222 2.044445,-7.37777 4,-13.06666 1.955556,-5.86667 3.28889,-10.22222 4,-13.06667 0.71111,-2.66667 1.6,-5.42222 2.66667,-8.26667 1.24444,-3.02222 2.57777,-6.31111 4,-9.86666 1.6,-3.55556 2.84444,-6.31112 3.73333,-8.26667 3.91111,-10.48889 8.44445,-21.33333 13.6,-32.53333 5.86667,-13.15555 9.33333,-20.71111 10.4,-22.66667 4.8,-10.13333 8.35556,-17.42222 10.66667,-21.86666 0.17777,-0.53333 1.06666,-2.22222 2.66666,-5.06667 1.77778,-2.84445 2.93334,-5.06667 3.46667,-6.66666 0.71111,0 1.33333,0.17778 1.86666,0.53333 0.71111,0.17778 1.33334,0.35556 1.86667,0.53333 0.71111,0.17778 1.24445,0.35556 1.6,0.53333 3.55555,0.35556 6.04444,1.51112 7.46667,3.46667 2.48889,3.2 5.06666,4.53333 7.73333,4 1.06667,1.24445 2.57778,1.33334 4.53333,0.26667 0.35556,-0.17778 0.62223,-0.35556 0.8,-0.53334 5.51111,-3.02222 11.02223,-4.26666 16.53334,-3.73333 1.6,0.17778 3.91111,0.17778 6.93333,0 6.22222,-0.35555 12.44444,2.22222 18.66667,7.73333 0.53333,0.35556 1.42222,1.24445 2.66666,2.66667 1.42223,1.42222 2.66667,2.48889 3.73334,3.2 1.06667,0.71111 2.31111,1.24445 3.73333,1.6 l 0.8,0.8 c 6.22222,6.93333 9.86666,12.71111 10.93333,17.33333 1.06667,0.71111 1.51111,1.86667 1.33333,3.46667 0,1.6 0.26667,2.93333 0.8,4 z m -59.73333,-15.73333 h -0.8 c -0.88889,0.35555 -1.42222,0.8 -1.6,1.33333 1.24445,-0.17778 1.77778,-0.17778 1.6,0 0.17778,-0.17778 0.0889,-0.53334 -0.26666,-1.06667 0.53333,-0.17777 1.06667,-0.26666 1.6,-0.26666 0.53333,0 0.88889,0.0889 1.06666,0.26666 0.35556,0 0.71112,-0.0889 1.06667,-0.26666 0.35555,-0.17778 0.71111,-0.44445 1.06667,-0.8 -1.6,-0.88889 -2.84445,-0.62223 -3.73334,0.8 z m -3.2,-2.4 c -1.06667,-0.17778 -2.04444,0.53333 -2.93333,2.13333 1.06667,-0.17778 1.68889,-0.35556 1.86667,-0.53333 0.35555,-0.17778 0.71111,-0.71111 1.06666,-1.6 z m 0,4 c -2.31111,-0.35556 -3.73333,0.26666 -4.26666,1.86666 0.88889,0.17778 1.42222,0.26667 1.6,0.26667 0.35555,-0.17778 0.8,-0.53334 1.33333,-1.06667 0.71111,-0.53333 1.15556,-0.88889 1.33333,-1.06666 z m -33.33333,68.79999 c -0.35555,1.24445 -0.97777,3.91111 -1.86666,8 -0.88889,3.91111 -1.86667,6.84445 -2.93334,8.8 1.06667,-0.53333 2.13333,-1.24444 3.2,-2.13333 1.24445,-0.88889 2.31111,-1.68889 3.2,-2.4 0.88889,-0.71111 1.86666,-1.6 2.93333,-2.66667 1.24445,-1.06667 2.13334,-1.86667 2.66667,-2.4 0.71111,-0.71111 1.68889,-1.68888 2.93333,-2.93333 l 2.66667,-2.66667 c 1.06667,-1.06667 1.68889,-1.68889 1.86667,-1.86666 1.42222,0 2.48889,-0.97778 3.2,-2.93334 0.17777,-0.53333 0.97777,-1.42222 2.4,-2.66666 2.84444,-2.48889 6.57777,-6.31112 11.2,-11.46667 4.62222,-5.33333 7.82222,-8.88889 9.6,-10.66666 l 1.33333,-1.33334 c 0.35555,-1.42222 1.95555,-3.46666 4.8,-6.13333 0.71111,-0.53333 1.33334,-1.15556 1.86667,-1.86667 l 1.6,-2.66666 c 0.71111,-0.88889 1.33333,-1.60001 1.86666,-2.13334 4.08889,-3.55555 8.62223,-9.33333 13.6,-17.33333 0,-0.17778 0.26667,-0.53334 0.8,-1.06667 0.53333,-0.71111 0.88889,-1.24444 1.06667,-1.6 0.17778,-0.35555 0.17778,-0.8 0,-1.33333 0,-0.71111 -0.26667,-1.33334 -0.8,-1.86667 -0.71111,1.42223 -1.24445,2.31112 -1.6,2.66667 -0.35555,0.17778 -1.15555,0.44445 -2.4,0.8 0.88889,-2.48889 1.06666,-4.08889 0.53333,-4.8 -0.53333,-0.71111 -2.13333,-1.15556 -4.8,-1.33333 -0.71111,0 -1.51111,0.0889 -2.4,0.26666 -0.71111,0 -1.42222,0.0889 -2.13333,0.26667 -0.71111,0 -1.51111,0.17778 -2.4,0.53333 -0.71111,0.17778 -1.42222,0.35556 -2.13333,0.53334 -0.53333,0.17777 -1.24445,0.35555 -2.13334,0.53333 -0.71111,0.17778 -1.42222,0.35556 -2.13333,0.53333 -3.2,0.53333 -9.86667,3.11111 -20,7.73334 -1.95555,0.88889 -3.28889,2.4 -4,4.53333 -0.71111,1.77778 -1.77778,4.35556 -3.2,7.73333 -1.42222,3.37778 -2.4,5.77778 -2.93333,7.2 -0.53333,1.24445 -1.42222,3.28889 -2.66667,6.13334 -1.24445,2.84444 -2.13334,5.06666 -2.66667,6.66666 -0.53333,1.6 -1.42222,3.91111 -2.66666,6.93334 -1.24445,3.02222 -2.13334,5.24444 -2.66667,6.66666 -0.35555,1.24445 -1.15555,3.2 -2.4,5.86667 -1.06667,2.48889 -1.86667,4.44444 -2.4,5.86666 z m -4.53333,103.46667 c 4.97777,8.35555 9.86666,14.75555 14.66666,19.2 v 0.26666 -2.13333 c -3.37777,-3.73333 -7.64444,-10.13333 -12.79999,-19.2 -6.93333,-11.73333 -12.26667,-22.84444 -16,-33.33333 -0.35556,-0.88889 -0.97778,-1.15555 -1.86667,-0.8 -0.71111,0.35555 -0.88889,0.88889 -0.53333,1.6 3.55555,8.53333 5.86666,13.86667 6.93333,16 3.55555,7.46667 6.75555,13.6 9.6,18.4 z m 17.06666,21.06666 -0.53333,-0.8 h -0.53333 c 0,-0.88889 -0.35556,-1.06666 -1.06667,-0.53333 0,0.35555 0.35556,0.62222 1.06667,0.8 v 0.26667 c 0,0.17777 0.26667,0.35555 0.8,0.53333 l -0.26667,-0.53333 c 0.17778,0.17777 0.35556,0.26666 0.53333,0.26666 z" />
    <path
       id="path969"
       style="font-size:266.66665649px;fill:#ffffff;fill-opacity:1;stroke:#000000;stroke-width:11.33858299;stroke-miterlimit:4;stroke-dasharray:none;stroke-opacity:1"
       d="m 353.16521,578.25227 q -0.53333,0.8 -0.53333,1.6 0.26667,0.8 0.26667,1.06667 0.26666,0.26666 0.8,0.8 0.8,0.53333 0.8,0.8 -1.33334,2.13333 -4,1.86666 -18.4,-0.26666 -23.2,0.26667 -15.46667,1.06667 -20.26667,2.4 -4.26666,1.06667 -6.4,5.6 -5.33333,9.86667 -8.26666,20.26667 -1.33334,4.26666 -5.33334,14.93333 -3.73333,10.4 -5.33333,16.26667 -1.06667,4.53333 -3.73333,12.79999 -2.66667,8.26667 -3.73334,12.53334 -4.8,17.86666 -5.06666,18.4 -0.8,3.2 -2.13334,9.06666 -0.26666,1.06667 -1.6,4 -1.06666,2.66667 -1.06666,4.53334 0,1.33333 -1.6,3.46666 -1.33334,1.86667 -1.6,3.2 -0.53334,3.2 -0.53334,3.46667 1.33334,0.53333 3.2,0.8 1.86667,0 2.93334,-0.26667 1.33333,-0.53333 3.2,-1.06666 1.86666,-0.53334 2.66666,-0.53334 1.6,-0.53333 5.33334,-1.33333 3.73333,-0.8 5.6,-1.06667 6.4,-1.33333 10.13333,-2.66666 2.13333,-0.53334 4.26667,-0.53334 2.4,-0.26666 5.33333,-0.26666 2.93333,0 4.26667,-0.26667 1.86666,2.66667 -0.8,2.66667 -2.4,-0.26667 -5.6,0.26666 -2.93334,0.53334 -5.06667,1.06667 -2.13333,0.26667 -5.6,1.33333 -3.46667,0.8 -5.06667,1.33334 -10.13333,2.4 -18.66666,4.8 -1.33334,0.26666 -0.53334,1.06666 -0.53333,0 -2.4,0 -1.86666,0 -1.86666,0.8 2.13333,1.33334 4.26666,-0.8 2.13334,0.26667 4.26667,0 2.13333,-0.53333 5.33333,-1.6 3.46667,-1.06666 4.26667,-1.33333 1.33333,-0.26667 6.4,-1.06667 5.33333,-1.06666 8,-2.13333 2.4,-1.06667 5.6,-1.06667 3.46667,-0.26666 6.13333,0 2.66667,0 5.86667,-0.26666 1.33333,0 4.8,1.86666 3.46667,2.13334 2.66667,4.53334 -1.06667,2.66666 -4.26667,3.73333 -2.13333,0.8 -13.06667,3.46667 -2.66666,0.8 -8,2.13333 -5.06666,1.33333 -6.66666,1.86667 -3.2,0.8 -10.4,2.93333 -6.93334,2.13333 -10.66667,3.2 -0.8,0.26666 -2.4,1.06666 -1.6,0.53334 -2.66667,0.53334 -4.26666,0.8 -5.06666,4.53333 -0.26667,1.33333 -0.8,2.13333 -0.26667,0.26667 -1.33334,1.6 -1.06666,1.06667 -1.6,1.6 -0.26666,0.53334 -0.8,1.86667 -0.26666,1.06667 0,2.13333 0,1.06667 -0.8,3.73334 -0.8,2.4 -0.26666,4 0.26666,1.6 -0.8,4.26666 -0.8,2.66667 -0.53334,4 0,0.26667 0,4 0,3.73334 0,4 0,2.93334 0.8,3.73334 1.06667,0.8 4,0.8 1.33334,0 3.46667,-0.53334 2.13333,-0.8 2.93333,-1.06666 8.53334,-1.06667 9.6,-1.06667 1.06667,-1.33333 4.26667,-1.06667 3.46667,0.26667 4.8,-1.33333 0,0 0.26667,0 0.53333,0 1.06666,0 0.53334,0 1.06667,0 1.33333,-0.26667 2.4,0 1.33333,0 2.66667,0 1.33333,-0.26667 2.66666,-1.06667 0.8,-0.53333 2.4,-0.53333 1.86667,0 2.93334,0.53333 2.13333,1.33334 7.73333,1.06667 2.13333,-0.26667 4.53333,0.26667 2.66667,0.53333 5.33334,1.33333 2.93333,0.53333 4.8,0.8 0.53333,0.26667 0.8,0.8 0.53333,0.26667 0.53333,0.8 0,0.53333 0.26667,1.06667 0.26666,0.26666 0.8,0.53333 -0.8,1.06667 -1.86667,1.6 -1.06667,0.53333 -3.2,1.33333 -1.86667,0.53334 -2.13333,0.53334 -6.93334,2.66666 -18.13334,4.8 -1.06666,0.26666 -15.2,3.73333 -0.8,1.33333 -2.93333,1.33333 -2.13333,0 -3.2,0.53334 -3.2,2.13333 -6.13333,1.86666 -0.53334,0 -0.8,0.26667 -0.26667,0.26667 0.26666,0.8 -0.53333,0.26667 -2.4,0.26667 -1.86666,-0.26667 -1.86666,0.53333 2.13333,1.6 4.26666,-0.8 2.13334,0.26667 4.53334,-0.26667 2.4,-0.53333 5.06666,-1.33333 2.93334,-1.06667 4.8,-1.33333 3.2,-0.53334 9.6,-2.13334 6.4,-1.86666 9.86667,-2.4 7.46667,-1.33333 17.86667,-2.66666 -0.26667,2.4 -2.66667,2.93333 -17.86667,3.46667 -24,5.06667 -2.13333,0.53333 -4.8,1.33333 -2.4,0.53333 -4.8,1.33333 -2.4,0.8 -4.53333,1.33334 -1.86667,0.53333 -5.33334,1.6 -3.2,1.06666 -5.6,1.86666 -2.13333,0.53334 -5.33333,1.06667 -2.93333,0.53333 -5.6,0.26667 -4.26667,-0.53334 -8.53333,-2.13334 -11.2,-4.8 -19.2,-12.8 -5.86667,-6.13333 -5.86667,-14.13333 0,-3.2 0.8,-12.53333 1.06667,-9.33334 0.53334,-14.4 -0.53334,-5.6 -1.06667,-6.4 -0.26667,-2.13334 -0.26667,-2.93334 0,-0.8 1.06667,-2.93333 1.06667,-2.4 1.33333,-2.93333 -0.53333,-0.53333 -2.4,-0.26667 -1.6,0 -2.4,-0.8 0,-2.66666 3.73334,-4.26666 1.06666,-0.53334 2.4,-1.86667 1.33333,-1.33333 1.6,-1.6 1.33333,-0.8 1.06666,-2.13333 -0.26666,-1.6 0,-3.46667 0.53334,-1.86667 1.06667,-4 0.8,-2.4 1.06667,-3.46667 1.6,-10.66666 1.86666,-11.2 0.26667,-0.8 2.13334,-9.33333 1.86666,-8.53333 4,-12.53333 -0.26667,-2.93334 1.6,-7.73334 1.86666,-4.8 2.13333,-6.4 0.53333,-2.93333 2.13333,-7.73333 1.86667,-5.06667 2.4,-6.66667 2.4,-8.79999 4.26667,-13.86666 1.06666,-2.13333 3.73333,-10.66667 2.66667,-8.8 4.8,-13.33333 0.26667,-1.86667 1.06667,-4 0.8,-2.13333 1.6,-4.26667 1.06666,-2.13333 1.6,-4 1.06666,-5.86666 4,-12 0.53333,-0.8 0.53333,-3.73333 0,-2.93333 1.33333,-4.26667 -0.53333,-4.53333 4,-12.53333 0.53334,-1.6 2.13334,-5.6 1.6,-4.26666 3.2,-6.4 4,-1.33333 7.73333,1.33334 1.33333,0.8 4,1.06666 10.13333,0 13.6,-0.26666 5.06667,0 14.66667,2.4 5.06666,1.06666 10.13333,1.33333 1.06666,0.26667 4,1.06666 3.2,0.8 4.8,0.53334 1.33333,-0.26667 3.46666,1.86666 -2.93333,0.8 -9.6,-0.26666 -6.66666,-1.33334 -9.33333,0.26666 2.13334,-0.26666 6.13333,0.8 4.26667,1.06667 6.13334,0.8 1.06666,0 1.33333,0.26667 4,1.33333 11.46667,2.4 1.33333,0.26667 2.4,1.86667 0,0.26666 0,0.8 0.53333,0.8 1.06666,1.06666 2.13334,0.26667 2.66667,2.13334 0.8,1.86666 -0.26667,2.93333 z m -42.93333,-13.6 q 1.06667,-0.8 3.73334,-0.53333 2.66666,0 4.26666,-0.53334 -1.6,0 -4,0 -2.4,-0.26666 -4.26666,-0.26666 -1.6,-0.26667 -4,0.26666 -2.13334,0.26667 -3.73334,1.6 0.8,0 2.4,0.26667 1.6,0.26667 2.93334,0.26667 1.33333,-0.26667 2.66666,-1.06667 z" />
    <path
       id="path971"
       style="font-size:266.66665649px;fill:#ffffff;fill-opacity:1;stroke:#000000;stroke-width:11.33858299;stroke-miterlimit:4;stroke-dasharray:none;stroke-opacity:1"
       d="m 368.26937,670.7856 q 0.53334,-1.06667 0.8,-1.6 0,1.06667 -0.26666,2.4 h -0.53334 q 0,-0.26667 0,-0.26667 0,-0.26666 0,-0.53333 z M 535.2027,575.85227 q 1.33333,1.06667 1.06667,1.86667 0,0.53333 -0.8,1.6 -0.8,1.06666 -0.53334,1.86666 0,2.66667 -2.93333,8.8 -4,7.46667 -9.6,23.46667 -0.26666,0.8 -6.66666,17.86667 -8.8,22.93333 -9.33334,25.06666 -1.86666,5.33333 -5.6,15.73333 -3.73333,10.4 -4.26666,12 -2.93334,8.8 -4,14.13334 -0.26667,1.06666 -0.8,2.66666 -0.53334,1.33334 -1.06667,2.66667 -0.26667,1.06667 -0.8,2.4 -0.53333,1.33333 -1.06667,2.93333 -0.26666,1.33334 -0.53333,2.66667 -1.06667,6.4 -3.46667,12.8 -1.33333,2.93333 -2.93333,8.8 -1.33333,5.86666 -1.86667,7.46666 -1.6,5.6 -2.93333,13.06667 -1.6,9.6 -3.46667,12.26667 0,4.8 -2.4,13.06666 -2.13333,8 -2.66666,10.66667 -0.26667,1.06667 -1.6,4 -1.33334,2.93333 -1.06667,5.06667 0,0.26666 -0.53333,0.8 -0.53334,0.53333 -1.33334,1.33333 -0.8,0.53333 -1.06666,0.8 -2.13334,2.66667 -4.26667,0.8 -0.8,-0.8 -2.13333,-0.8 -1.06667,0 -2.4,0 1.6,1.6 1.86666,1.86667 -0.26666,0.26666 -0.8,1.06666 -0.53333,0.53334 -1.06666,0.8 -0.53334,0.26667 -1.06667,0 -1.06667,-0.53333 -4,-1.33333 -2.66667,-0.8 -4.53333,-1.6 -1.6,-1.06667 -2.66667,-2.93333 -0.8,-1.33334 -1.33333,-1.33334 -2.66667,-0.8 -4.8,-2.4 -2.13333,-1.86666 -3.2,-3.46666 -1.06667,-1.6 -2.93333,-4.53334 -1.6,-2.93333 -2.4,-4 -1.33334,-2.13333 -2.66667,-4.8 -1.33333,-2.93333 -1.86667,-4.8 -0.53333,-1.86666 -1.6,-5.6 -0.8,-3.73333 -1.33333,-5.06666 -0.8,-2.93334 -4.8,-20.53334 -0.26667,-1.06666 -1.06667,-3.73333 -0.53333,-2.93333 -1.06666,-4.53333 -0.26667,-1.86667 -0.53334,-4.26667 -0.26666,-2.4 0,-4.26666 -1.33333,-4 -2.4,-12 -1.06666,-8.26667 -2.66666,-12.26667 0.53333,-2.13333 -0.53334,-5.6 -0.8,-3.73333 -0.8,-5.33333 0.53334,-4.53334 -2.4,-6.4 -1.33333,-0.8 -1.33333,-3.73334 0,-14.66666 0,-19.46666 0,-3.2 -0.53333,-3.73334 -1.33334,-0.26666 -1.86667,0.8 -1.86667,3.46667 -4.8,12.53334 -0.53333,1.6 -2.66667,7.46666 -2.13333,5.6 -2.93333,8.8 -0.8,3.2 -2.93333,8.53334 -2.13334,5.06666 -2.66667,7.46666 -4,12.8 -5.33333,18.4 -0.26667,2.13334 -1.33334,5.6 -1.06666,3.46667 -1.86666,6.66667 -0.53334,2.93333 -0.53334,5.6 -1.06666,1.06666 -1.06666,3.46666 0,2.13334 -0.53334,2.93334 -0.8,1.06666 -0.8,3.2 0,2.13333 -0.26666,3.2 -1.06667,2.66666 -1.86667,8.8 -0.53333,6.13333 -1.86667,9.06666 0,0.26667 0,3.73334 0,20 0,22.66666 0,1.33334 -0.53333,2.13334 -0.26667,0.8 -1.06667,1.33333 -0.8,0.26667 -2.4,0.53333 -2.66666,0.26667 -8,-0.53333 -5.06666,-0.8 -6.93333,-0.8 -1.06666,0 -2.66666,-1.33333 -0.26667,-0.26667 -1.86667,-1.6 -1.6,-1.6 -2.13333,-1.86667 -0.26667,-0.53333 -1.6,-1.6 -1.33334,-1.33333 -2.13334,-2.13333 -0.53333,-0.8 -1.33333,-1.86667 -0.8,-1.33333 -1.6,-2.4 -0.53333,-1.06667 -1.06667,-2.4 -0.26666,-0.8 -0.53333,-3.73333 -0.26667,-2.93334 -1.06667,-4.26667 0.26667,-2.66667 0,-4.53333 -0.26666,-2.13334 0,-4.8 0,-2.66667 1.06667,-4.53334 0.26667,-0.53333 0,-2.4 -0.26667,-2.13333 0.53333,-5.6 0.8,-3.46666 0.8,-4.53333 0,-1.86667 1.06667,-5.06667 1.06667,-3.2 1.06667,-4.8 0.26666,-2.66666 1.33333,-7.73333 1.33333,-5.06666 1.86667,-7.2 0,-1.06666 3.73333,-16.53333 1.06667,-4 3.2,-11.2 2.13333,-7.46667 2.93333,-10.66667 0.8,-3.46666 5.33333,-16 6.13334,-17.06666 17.06667,-49.33333 1.33333,-3.46666 2.66667,-7.73333 1.6,-4.53333 2.66666,-7.73333 1.33334,-3.46667 2.66667,-8 1.6,-4.53334 2.66667,-7.73334 0.53333,-1.33333 2.93333,-8.53333 2.66667,-7.46667 4,-11.2 0.8,-2.4 2.13333,-4.26667 1.86667,-2.4 4,0.53334 0.8,1.06666 1.86667,1.06666 6.66667,0.26667 9.33333,4.26667 0.8,1.33333 2.13334,1.86667 1.33333,0.53333 2.93333,0.8 1.86667,0 2.66667,0.26666 1.6,0.53334 4.53333,2.13334 3.2,1.6 4.8,2.13333 1.86667,0.8 3.2,3.73333 2.4,5.06667 4,11.46667 0.53333,2.66667 0.53333,7.73333 0,4.8 0.53334,6.93334 1.06666,6.66666 0.8,19.2 -0.26667,12.26666 0.53333,18.93333 0.8,7.2 0.53333,20.26666 0,13.06667 0.8,20 0.26667,3.46667 0.26667,8 0.26667,4.53334 0.26667,8.8 0.26666,4.26667 0.8,7.73334 0,1.6 0.26666,6.66666 0.26667,4.8 0.8,7.2 0.53333,2.13334 0.53333,6.4 0.26667,4.26667 0.8,6.13333 0,0.8 0.26667,2.4 0.26667,1.33334 0.26667,2.13334 0.26666,0.8 0.8,2.13333 0.53333,1.06667 1.6,1.86667 1.86666,-2.13334 1.86666,-3.46667 0,-1.86667 1.33334,-5.33333 1.33333,-3.46667 1.06666,-5.6 0,-0.26667 0.53334,-0.53333 2.4,-2.13334 3.73333,-5.06667 1.6,-2.93333 2.66667,-7.73333 1.33333,-5.06667 1.6,-6.4 1.33333,-3.46667 2.93333,-8.53334 1.86667,-5.33333 3.2,-9.06666 1.33333,-3.73334 2.93333,-8.53334 1.6,-4.8 2.4,-9.06666 2.93334,-4.8 5.86667,-14.66667 2.93333,-9.86667 3.73333,-11.46667 1.6,-3.99999 4,-14.66666 0.8,-3.73333 3.2,-10.66667 2.4,-6.93333 2.66667,-8.26666 0.26667,-0.53334 9.33333,-27.2 1.86667,-5.06667 3.2,-7.46667 1.06667,-2.4 2.4,-5.6 1.33334,-3.46667 2.66667,-6.4 1.33333,-3.2 2.93333,-5.6 0.26667,-0.26667 0.53334,-0.8 0.53333,-0.53333 0.8,-1.06667 0.26666,-0.53333 0.53333,-1.06666 1.6,-1.86667 2.66667,0 2.93333,-0.26667 4.26666,0 1.6,0 4.26667,0.8 2.93333,0.53333 4.26667,0.53333 0.53333,0.53333 0.26666,1.86667 0,1.06666 0.53334,1.6 0.26666,0 2.93333,0.26666 0.53333,0.53334 0.53333,0.53334 0,1.06666 0,5.06666 0.8,0.53334 0.8,0.53334 0.8,0 1.6,0.26666 0.8,0 1.33333,0.26667 0.53334,0.26667 1.33334,0.8 0.8,0.53333 1.33333,0.8 z M 342.66938,750.51893 q 1.06666,-1.86667 0,-4 -1.06667,2.13333 0,4 z m 26.13333,-78.93333 q 0.8,-0.53333 0.53333,-3.2 l -0.26667,0.8 q 0,-0.8 -0.26666,-1.6 -0.53334,0.8 -0.53334,1.06667 0,0.53333 0,2.13333 0,0.26667 0,0.8 -0.8,-0.26667 -1.06666,0.8 -0.8,2.13333 -1.86667,4.53333 -0.8,2.4 -1.6,4.26667 -0.53333,1.86667 -1.33333,4.26667 -0.8,2.4 -1.6,4.53333 -1.33334,3.46667 -3.2,10.4 -1.6,6.66667 -2.4,8.53333 -3.2,10.93334 -4.26667,19.2 0,0.8 -0.8,2.13334 -0.8,1.33333 -0.8,2.4 0.53334,2.66666 -0.8,4.53333 -1.33333,2.4 0.26667,5.86666 1.86667,-3.73333 1.86667,-4 0,-1.6 0.26666,-3.46666 0.53334,-2.13333 1.33333,-4.26667 0.8,-2.4 1.06667,-3.73333 2.66667,-12 6.13333,-25.33333 1.06667,-3.46667 3.2,-10.4 2.13334,-7.2 3.2,-10.66667 0,-0.26667 1.33334,-3.46667 1.33333,-3.46666 1.6,-6.13333 z m 25.6,-88.26666 q 1.06666,-2.4 -0.26667,-4.53334 -1.86667,3.73334 -1.86667,3.73334 -2.93333,9.33333 -15.73333,46.13333 -6.93333,20.8 -10.66667,31.2 -4.26666,11.73333 -9.86666,29.6 -1.06667,3.46666 -2.66667,10.13333 -1.6,6.66667 -2.66666,9.6 -0.53334,2.13333 -1.06667,4.53333 -0.53333,2.4 -1.33333,5.33334 -0.53334,2.66666 -1.06667,4.53333 0,0.26667 -1.06667,3.46667 -0.8,2.93333 -0.8,3.46666 0.26667,0.53334 0.53334,3.73334 -1.33334,-0.26667 -1.33334,1.33333 0,2.4 -0.26666,3.2 -0.8,0.8 -1.06667,1.6 0,0.53333 0,1.86666 0.26667,1.06667 0.26667,1.33334 l 0.53333,0.26666 0.26667,-0.26666 q 0,-2.93334 0.26666,-4.53334 1.33334,0.26667 1.33334,-1.33333 0,-2.4 0,-3.46666 1.33333,-0.53334 1.33333,-2.13334 0,-1.6 0,-2.66666 1.06667,-2.4 4.53333,-15.46667 1.06667,-4 3.46667,-12 2.66666,-8.26667 3.73333,-12.8 0.8,-3.73333 3.46667,-10.66667 2.93333,-7.2 4,-10.66666 0.8,-2.93334 3.2,-9.86667 0.53333,-1.06667 1.33333,-2.93333 0.8,-1.86667 1.33333,-3.46667 0.8,-1.86667 0.8,-3.2 0.26667,-1.33333 1.86667,-4.53333 1.6,-3.46667 1.06667,-5.6 4,-10.4 12,-35.73333 4.26666,-14.13334 6.4,-19.2 z" />
    <path
       id="path973"
       style="font-size:266.66665649px;fill:#ffffff;fill-opacity:1;stroke:#000000;stroke-width:11.33858299;stroke-miterlimit:4;stroke-dasharray:none;stroke-opacity:1"
       d="m 725.49022,586.7856 q 0.53333,3.46667 0,4.26667 -0.26667,0.8 -3.46667,1.33333 0,0.8 0.53334,1.33334 0.8,0.53333 1.33333,1.33333 0.53333,0.53333 0.26667,1.6 -5.33334,1.06667 -8.53334,-0.26667 -1.6,-0.53333 -2.13333,-0.53333 -4.53333,0.53333 -12.8,-0.26667 -8.26666,-1.06666 -10.4,-1.06666 -7.73333,0 -10.93333,-1.06667 -1.06667,-0.26667 -5.06667,0 -4,0 -5.06666,-1.33333 0,0 -0.53334,0 -3.2,0.26666 -9.33333,-0.53334 -5.86667,-1.06666 -9.06667,-0.8 -1.6,0.26667 -4,-0.8 -2.4,-0.8 -4.53333,-0.26666 -2.13333,0.26666 -4,1.86666 -1.6,1.6 -2.4,3.73334 -0.8,3.2 -3.2,8.53333 -2.4,5.33333 -2.93333,7.2 -1.33334,3.46667 -3.46667,7.73333 -1.86667,4.26667 -4,8.8 -1.86667,4.53334 -2.93333,7.73334 -1.86667,4.8 -8,18.13333 -4.53333,10.4 -9.06667,25.06666 -1.33333,4 -4.26666,12 -2.66667,7.73334 -4,11.46667 -1.86667,5.86667 -4,12.53333 -2.13334,6.66667 -5.06667,14.66667 -2.66667,8 -4.26667,12.53333 -6.66666,20.26667 -11.73333,35.73333 -2.13333,6.4 -3.2,11.73334 -0.8,4 2.13333,6.13333 0,0.26667 1.06667,1.06667 1.06667,0.53333 1.33333,1.06666 0.53334,0.26667 0.53334,1.33334 0,0.8 -1.06667,1.86666 0,0 0,0.53334 0.26667,0.26666 0.53333,0.8 0.53334,0.26666 0.8,0.26666 3.2,1.06667 3.46667,3.46667 -1.33333,1.33333 -4.53333,1.86667 -3.2,0.53333 -4.26667,1.06666 -1.6,0.8 -3.73333,-0.26666 -14.93334,-8 -22.4,-15.2 -5.33334,-4.8 -8.8,-16.8 -0.26667,-0.26667 -0.26667,-1.33334 0,-1.06666 0,-1.33333 0,-1.06667 0.8,-3.2 0.8,-2.4 0.8,-3.73333 -0.8,-4.8 1.06667,-6.4 -0.53334,-3.46667 2.66666,-13.33334 0.53334,-1.6 1.6,-5.86666 1.06667,-4.53333 1.86667,-6.93333 5.33333,-15.73334 7.2,-22.13334 1.86667,-7.2 9.06667,-28.8 3.73333,-10.66666 5.6,-14.4 0.26666,-0.8 0.26666,-1.86666 0.26667,-1.33334 0.8,-2.13334 0.53334,-0.8 1.6,-1.33333 2.4,1.86667 1.33334,5.06667 -6.66667,17.6 -10.13334,30.13333 -4.26666,14.66667 -6.93333,20.53333 0.53333,1.06667 0,2.93334 -0.26667,1.6 -0.8,2.66666 -0.26667,0.8 -1.06667,2.66667 -0.53333,1.6 -0.8,2.4 -0.53333,1.86667 -1.6,5.6 -1.06666,3.46666 -1.6,5.06666 -0.8,2.66667 -2.13333,8 -1.06667,5.33334 -1.86667,7.73334 -1.06666,3.2 1.86667,4.8 4,-14.66667 4.26667,-15.73334 2.4,-9.06666 13.33333,-42.13333 0.26667,-0.8 2.13333,-7.46666 2.13334,-6.93334 3.46667,-10.13334 1.6,-4.26666 4.8,-14.4 3.46667,-10.4 5.86667,-15.73333 1.33333,-2.93333 4,-11.46666 0.8,-2.66667 2.93333,-7.73334 2.13333,-5.33333 2.93333,-8 0.53334,-1.6 1.86667,-4.53333 1.6,-2.93333 2.13333,-4.53333 0,-0.26667 0.53334,-1.06667 0.53333,-1.06667 0.8,-1.6 0.53333,-0.53333 0.26666,-1.33333 -0.26666,-0.8 -1.06666,-1.6 -0.8,-0.8 0.53333,-2.93334 2.66667,-4.26666 4,-7.73333 5.06667,-13.6 5.86667,-14.93333 -3.2,-2.4 -7.73334,-2.4 -38.13333,0.26666 -59.46666,0 -1.33333,0 -4,0.8 -2.4,0.53333 -3.73333,0.53333 -1.6,0 -3.46667,0 -1.86667,0 -3.73333,0 -1.6,0 -3.46667,-0.53333 -1.86667,-0.53334 -3.46667,-1.6 -0.26666,-1.06667 -0.8,-2.66667 -0.26666,-1.6 -0.53333,-2.66667 -0.26667,-1.06666 -0.53333,-2.93333 0,-1.86667 0.26666,-3.2 0.26667,-2.13333 -1.06666,-3.2 -2.66667,-2.13333 -0.53334,-6.13333 1.86667,-4 2.66667,-7.46667 0.8,-3.46666 4.8,-4.8 12,-4.26666 21.06666,-3.46666 2.66667,0.26666 8,-0.53334 5.6,-1.06666 8.26667,-1.06666 2.66667,0.26666 17.06667,0.26666 2.4,0 8.26666,0.8 6.13334,0.8 9.33334,0.53334 11.73333,-0.8 17.33333,0 2.66667,0.53333 8,0.8 5.33333,0 7.73333,0.53333 1.86667,0.26667 4,0.53333 2.13333,0 3.73333,0 1.6,0 3.73334,0.26667 2.13333,0 3.73333,0.53333 5.6,1.06667 10.93333,0.8 1.06667,0 3.2,0.8 2.4,0.8 3.73334,0.8 0.53333,0 1.6,-0.26666 1.33333,-0.26667 1.86666,-0.26667 0.8,0 1.86667,0.53333 1.06667,0.26667 1.6,1.06667 0.26667,0.26667 1.86667,0 2.66666,-0.53333 7.2,0.53333 4.8,1.06667 7.46666,0.8 3.73334,1.33334 10.93334,2.93334 7.46666,1.33333 8.8,1.6 2.4,0.53333 18.66666,6.66666 3.2,1.33333 4,1.33333 0.8,0 0.53333,1.33334 -0.26666,1.33333 -1.33333,1.06666 -8.53333,-2.4 -9.33333,-2.66666 -4,-2.13334 -14.4,-3.46667 -0.53333,-0.26667 -2.66667,-0.8 -2.13333,-0.8 -3.73333,-0.53333 -1.6,0.26666 -6.4,-1.06667 -0.8,-0.53333 -3.2,-0.26666 -2.4,0.26666 -3.46667,0 -5.06666,-1.86667 -10.66666,-0.53334 15.73333,2.93333 19.46666,3.46667 3.73334,0.26666 19.2,3.2 1.06667,0.26666 2.93334,2.13333 2.93333,2.93333 6.93333,4.26667 8.8,2.93333 11.46666,5.33333 3.46667,3.46667 2.66667,5.86667 0,0.26666 0,1.06666 z" />
    <path
       id="path975"
       style="font-size:266.66665649px;fill:#ffffff;fill-opacity:1;stroke:#000000;stroke-width:11.33858299;stroke-miterlimit:4;stroke-dasharray:none;stroke-opacity:1"
       d="m 687.71519,815.85226 q 1.33333,6.66667 -0.8,9.06667 -1.86667,2.66666 -8.53334,2.66666 -17.33333,0.53334 -33.06666,6.13334 -13.6,4.8 -19.2,-0.53334 -5.33333,-5.06666 -5.6,-18.39999 -0.26667,-9.33334 -5.33333,-15.2 -5.86667,-6.93334 -4.53334,-17.6 0.8,-4.53334 1.6,-8.8 0.8,-4.53334 1.86667,-9.33334 1.33333,-5.06666 2.13333,-8.53333 1.06667,-3.73333 2.66667,-9.33333 1.86667,-5.6 2.66666,-8.26667 1.06667,-2.93333 3.2,-9.06666 2.4,-6.13334 2.93334,-8.26667 0.8,-2.13333 3.2,-9.06667 2.66666,-6.93333 3.46666,-8.26666 2.66667,-7.2 8.53334,-21.6 6.13333,-14.4 9.06666,-21.86667 0.26667,-1.33333 4,-12.26666 3.73334,-11.2 6.13334,-16.53334 0.26666,-0.26666 0.53333,-1.33333 0.53333,-1.06667 0.8,-1.6 0.26667,-0.53333 0.8,-1.06667 0.8,-0.53333 1.86667,-0.53333 3.2,0 3.2,4.53333 0,2.4 2.66666,2.66667 8.53334,1.06667 12.53334,7.2 4,6.13333 1.33333,14.66666 -2.93333,9.06667 -13.33333,36.53334 -20.53334,53.59999 -28.26667,86.66666 -1.33333,5.6 -2.13333,9.06667 -1.86667,9.6 0,11.46666 1.86666,1.86667 10.93333,0.8 14.4,-2.13333 26.13333,4.53334 7.2,4 8.53334,11.46666 z m -24.8,-164.79999 q -7.2,16.8 -9.86667,22.93333 l 1.6,0.8 q 3.2,-7.73333 10.13333,-22.93333 z" />
    <path
       id="path977"
       style="font-size:266.66665649px;fill:#ffffff;fill-opacity:1;stroke:#000000;stroke-width:11.33858299;stroke-miterlimit:4;stroke-dasharray:none;stroke-opacity:1"
       d="m 814.20689,636.3856 q 18.13333,2.13334 13.06667,20 -2.13334,7.46667 -6.66667,21.06667 -4.26667,13.6 -5.86667,18.93333 -19.73333,65.86666 -42.93333,129.59999 -9.06666,24.53334 -25.6,48.53334 -9.33333,13.86666 -23.46666,16.26666 -13.86667,2.4 -27.2,-7.46666 -11.73333,-8.8 -18.4,-17.06667 -2.93333,-3.46667 -1.33333,-5.33333 1.86666,-2.4 5.6,-1.06667 7.46666,2.66667 9.86666,5.33333 8.53334,9.33334 20.26667,-0.26666 9.86666,-8 14.66666,-19.46667 3.46667,-8.8 18.93334,-47.2 1.33333,-3.2 0.26666,-4 -0.53333,-0.53333 -1.33333,-0.53333 -0.53333,0 -0.8,0.26667 -0.26667,0.26666 -1.33333,1.06666 -0.8,0.53334 -0.8,0.53334 -12.26667,8.53333 -17.6,10.66666 -9.06667,3.46667 -16.26667,-2.4 -1.6,-1.33333 -7.73333,-6.4 -19.46667,-16.8 -12,-40.8 10.13333,-32.53333 28,-71.73333 6.13333,-13.33333 17.6,-46.66666 0.26666,-0.26667 0.53333,-1.06667 0.26667,-1.33333 0.53333,-1.86666 0.26667,-0.8 1.06667,-1.33334 0.8,-0.53333 1.86667,-0.8 2.66666,0 3.73333,4.26667 0.26667,1.6 2.66667,2.13333 9.6,2.4 13.6,9.6 4,7.2 0.8,17.06667 -3.46667,10.66666 -11.73334,30.4 -8.26666,19.73333 -9.6,22.93333 -7.2,18.66666 -17.86666,47.46666 -1.06667,2.93334 -3.2,12.8 -0.53334,3.46667 1.33333,4.53334 1.6,1.06666 4.53333,-1.33334 5.06667,-3.73333 10.4,-10.4 0.26667,-0.53333 5.33334,-6.4 -0.53334,2.13334 -1.86667,4.53334 -1.33333,2.4 -2.4,4.26666 -1.06667,1.6 -3.2,3.73334 -1.86667,2.13333 -3.2,3.46666 -1.06667,1.33334 -3.46667,3.73334 -2.4,2.13333 -3.46666,3.46666 3.46666,-0.53333 4.26666,-1.06666 1.06667,-0.53334 3.46667,-3.2 15.46667,-16.53334 33.6,-47.2 4.8,-8 8.8,-16.53333 4,-8.53334 9.6,-21.86667 5.6,-13.33333 7.2,-17.06667 2.93333,-6.66666 6.4,-15.46666 3.73333,-8.8 7.2,-17.33334 3.46666,-8.53333 6.66666,-15.19999 1.33334,-3.46667 2.93334,-3.73334 1.06666,0 1.6,0.53334 0.53333,0.26666 0.53333,1.86666 0.26667,1.33334 0.26667,1.33334 0.26666,1.6 2.13333,1.86666 z m -77.6,18.4 q -3.2,7.2 -6.13333,13.86667 2.93333,-2.4 5.33333,-7.73334 0,-0.26666 2.13334,-5.6 -0.26667,0 -0.8,-0.26666 -0.26667,-0.26667 -0.53334,-0.26667 z m -23.2,215.73333 q 6.93334,-2.66667 9.6,-9.33334 -5.86666,3.73334 -9.6,9.33334 z m 89.86667,-206.4 q 3.2,-8.53333 7.46666,-19.19999 -0.26666,0 -1.06666,-0.26667 -0.53334,-0.26667 -0.8,-0.53333 -2.4,6.39999 -7.2,19.46666 0.26666,0 0.8,0.26667 0.53333,0 0.8,0.26666 z" />
  </g>
  <g
     transform="translate(174.99997,152.48026)"
     id="g942">
    <path
       style="fill:#bfbfbf;stroke:#000000;stroke-width:0;stroke-miterlimit:4;stroke-dasharray:none;stroke-opacity:1"
       d="m 90.788476,159.49463 c -6.840661,8.95336 -9.193798,21.10492 -12.890888,31.74522 -10.988927,43.42399 -11.433373,90.72743 5.325399,132.78692 4.894808,11.57588 7.058215,25.03683 14.760854,35.08742 9.893149,-0.41285 18.510969,-7.6955 27.259519,-11.88823 19.14631,-10.22928 35.32143,-24.63204 51.62312,-38.71858 10.23101,-7.89544 22.57096,-17.52335 21.29174,-32.0363 -0.2309,-7.87671 -11.31441,-8.20167 -16.17907,-12.10358 -24.42966,-12.55435 -43.02311,-33.61554 -60.8348,-54.11863 -12.629,-15.23089 -19.63437,-34.3306 -29.908408,-50.76805 z"
       id="path913" />
    <path
       style="fill:#ffffff;stroke:#000000;stroke-width:0;stroke-miterlimit:4;stroke-dasharray:none;stroke-opacity:1"
       d="m 269.9848,168.01858 c -9.19453,1.04364 -17.13683,10.43287 -17.3545,19.48963 3.06181,12.9007 2.13279,26.13442 2.27048,39.19195 5.43009,5.73298 15.39731,3.19192 22.14683,1.21521 17.31595,-6.6873 31.77377,-20.68532 40.54537,-36.76943 -0.99578,-3.81377 -7.24609,-1.10025 -9.36917,-4.46913 -12.70386,-5.81785 -23.62256,-18.24474 -38.23901,-18.65823 z"
       id="path915" />
    <path
       style="fill:#ffffff;stroke:#000000;stroke-width:0;stroke-miterlimit:4;stroke-dasharray:none;stroke-opacity:1"
       d="m 548.77822,203.42916 c -9.09544,2.71582 -17.47163,7.97574 -26.37011,10.76681 -2.31931,5.11228 3.61033,9.95471 2.55222,15.44586 1.33742,9.63793 -2.44376,18.98158 -3.80346,28.14616 4.7459,1.62898 9.17583,-4.69835 13.29139,-6.57388 11.13996,-11.45177 13.63833,-28.06016 15.04536,-43.23019 0.81101,-1.48112 2.216,-4.51595 -0.7154,-4.55476 z"
       id="path917" />
    <path
       style="fill:#ffffff;stroke:#000000;stroke-width:0;stroke-miterlimit:4;stroke-dasharray:none;stroke-opacity:1"
       d="m 514.26566,227.73509 c -2.33758,0.12185 -4.22023,1.80306 -5.81127,3.36231 -1.25924,1.29965 -2.7313,3.07373 -2.02638,5.00781 0.94662,2.48832 2.62799,4.91725 5.12793,6.02539 1.76384,0.82505 3.89549,0.72132 5.66016,-0.0427 2.28664,-1.01888 3.87547,-3.36599 3.90771,-5.87573 0.15172,-3.90802 -2.64794,-8.36107 -6.85815,-8.47705 z"
       id="path919" />
    <path
       style="fill:#ffffff;stroke:#000000;stroke-width:0;stroke-miterlimit:4;stroke-dasharray:none;stroke-opacity:1"
       d="m 478.67508,219.60789 c -1.04908,0.12473 -0.99717,1.31641 -1.00547,2.11189 -0.2634,6.99251 -0.58653,14.07572 0.70375,20.99203 0.3784,1.39163 0.47428,3.14563 1.77193,4.03305 1.08791,0.57583 2.09014,-0.57384 2.26832,-1.58057 0.84994,-2.65162 0.60852,-5.53811 1.73754,-8.11939 1.77284,-4.62422 4.1717,-9.06319 7.47455,-12.78068 0.55592,-0.83327 1.57614,-1.47388 1.75513,-2.48279 -0.0395,-1.20116 -1.47502,-1.01707 -2.32053,-1.03568 -3.48059,-0.0187 -6.96625,-0.26861 -10.39754,-0.89916 -0.66073,-0.0849 -1.3205,-0.2264 -1.98768,-0.2387 z"
       id="path921" />
    <path
       style="fill:#ffffff;stroke:#000000;stroke-width:0;stroke-miterlimit:4;stroke-dasharray:none;stroke-opacity:1"
       d="m 90.788471,159.49463 c -6.840661,8.95336 -9.193798,21.10492 -12.890888,31.74522 -10.988927,43.42399 -11.433373,90.72743 5.325399,132.78692 4.894808,11.57588 7.058215,25.03683 14.760854,35.08742 9.893154,-0.41285 18.510964,-7.6955 27.259514,-11.88823 19.14631,-10.22928 35.32143,-24.63204 51.62313,-38.71858 8.52046,-20.94714 -95.29559,-25.51116 -85.630543,-149.02656 z"
       id="path913-3" />
    <g
       id="g1203"
       transform="translate(659.04372,-205.20855)">
      <path
         id="path1175"
         d="m -312.6911,225.2932 c -2.75854,3.89306 -0.11887,9.84164 -0.75782,14.38867 0.47496,13.01317 -7.42009,24.1881 -11.0385,36.00985 0.037,17.23567 4.27732,35.34274 15.9428,48.49796 6.67037,5.80336 14.22451,11.63294 22.31445,14.67578 9.44825,-8.1545 19.0792,-16.49688 27.45508,-25.58594 -8.93717,-5.95095 -14.29443,-15.78092 -17.43192,-25.96192 -6.8744,-20.26413 -12.84527,-42.68235 -29.93908,-57.1121 -2.09313,-1.48805 -3.88156,-4.57712 -6.54501,-4.9123 z"
         style="fill:#404040;stroke:#000000;stroke-width:0;stroke-miterlimit:4;stroke-dasharray:none;stroke-opacity:1" />
      <path
         id="path1179"
         d="m -21.091494,267.28538 c -16.545725,14.04222 -31.025183,31.19782 -50.298828,41.63672 -10.024708,6.77269 -20.911995,13.33555 -28.246093,23.14258 -2.122715,4.93324 -5.577525,10.21509 -5.355465,15.61524 3.59431,1.771 6.934268,-3.37819 10.078121,-4.65821 14.302661,-9.28014 30.793863,-14.69797 44.413815,-25.16126 12.706311,-7.72098 21.626546,-20.15628 26.635013,-33.99303 1.523464,-5.15975 5.364878,-10.69152 4.091797,-16.14649 -0.316381,-0.37196 -0.840247,-0.54949 -1.31836,-0.43555 z"
         style="fill:#404040;stroke:#000000;stroke-width:0;stroke-miterlimit:4;stroke-dasharray:none;stroke-opacity:1" />
      <path
         id="path1185"
         d="m -1.5621976,239.42796 c -6.423615,0.64517 -10.3307614,8.84173 -6.996092,14.3711 -0.190963,6.10815 -4.2074734,11.60137 -5.2578134,17.6582 -4.617099,13.91545 -8.780409,28.91581 -20.458664,38.76609 -13.248087,13.94363 -30.450134,23.13353 -48.305008,29.74758 -7.396472,4.08318 -16.818988,6.66922 -21.593745,13.99414 5.609475,4.42173 10.883799,10.62661 17.775386,13.04102 9.208812,-3.15685 17.937983,-8.15075 27.816897,-9.29399 10.307002,-2.0757 20.565604,-5.25594 28.57162,-12.40607 7.957725,-6.31351 18.875407,-14.08093 16.892733,-25.73744 -1.040842,-11.3542 -4.450567,-23.6384 -0.144532,-34.67188 4.8383644,-11.18745 14.5624084,-19.39646 19.9609384,-30.13476 1.5432,-5.95229 -0.75606,-15.33154 -8.26172,-15.33399 z"
         style="fill:#808080;stroke:#000000;stroke-width:0;stroke-miterlimit:4;stroke-dasharray:none;stroke-opacity:1" />
      <path
         id="path1189"
         d="m -167.24579,278.74515 c -16.60966,1.52493 -32.97663,5.71423 -48.99805,10.25195 -12.89644,8.07054 -24.14321,18.56317 -36.49932,27.44586 -24.3201,19.43053 -43.50586,44.15048 -65.01826,66.41547 -7.73529,6.48867 -17.22206,11.24002 -22.43551,20.33577 -11.82405,16.62335 -28.45426,33.10517 -49.64847,35.07243 -9.19246,1.23542 -18.34009,-6.45663 -27.0625,-1.23437 -14.98922,6.71624 -28.45863,16.29069 -42.51953,24.68359 0.34885,7.12096 5.97808,14.3886 3.63399,21.99414 -0.35399,11.27378 -7.75944,20.38983 -16.30001,27.01953 -19.13936,15.25387 -36.90341,32.67815 -59.15426,43.41681 -9.84867,4.30154 -18.83658,12.08026 -30.10483,11.14389 -5.74517,1.04053 -13.10848,-0.65558 -17.72138,3.55063 -5.85609,6.42297 -7.04553,15.26421 -5.82376,23.57923 1.74609,22.74864 -0.019,45.76782 2.67923,68.45983 1.95243,13.72443 8.91252,27.54865 21.77539,33.91602 12.38238,3.50931 25.57858,1.14935 38.20704,0.33984 21.04804,-4.22538 42.27596,-6.91519 63.76447,-7.44951 9.81031,1.01083 16.47892,-7.6085 24.62804,-11.694 15.83626,-10.06246 33.85846,-16.03502 50.91955,-23.67435 23.98265,-9.74864 47.45644,-20.98329 72.41205,-28.10539 18.65109,-6.4149 38.71293,-14.24403 50.97315,-30.50448 3.66283,-3.83735 2.09653,-9.515 4.79492,-13.60547 1.95009,-2.74815 7.40971,-2.06215 6.19922,2.09961 -0.36198,9.02866 -3.92724,17.84382 -11.05859,23.70508 -13.15302,13.50466 -31.79368,19.616 -49.02393,26.17057 -37.85971,10.7788 -72.88608,29.11262 -109.58428,43.04067 -6.33823,3.09358 -13.83719,4.65314 -19.48945,8.76141 1.10045,3.25798 6.27428,0.44154 8.8687,0.83272 24.95486,-3.08947 50.93098,-1.44237 75.08638,-9.91865 39.8959,-11.5886 79.26319,-24.92131 118.97593,-37.03583 31.01365,-10.45364 61.75945,-21.70317 92.44985,-33.01691 16.30844,-7.40011 32.56793,-15.20532 50.239212,-18.84349 10.3091,-3.37741 22.43923,-4.58981 30.55571,-12.41041 8.53651,-16.2531 13.93512,-34.02626 23.76475,-49.67258 5.30077,-8.69454 12.0665,-16.95722 15.70638,-26.35672 -0.06931,-27.96079 0.71818,-56.51217 -6.82724,-83.64843 -2.64528,-14.10881 -4.43395,-28.63379 -11.46158,-41.42893 -1.39593,-3.39303 -2.72669,-9.84372 -7.91473,-7.45584 -12.10863,4.27858 -24.43208,8.05298 -36.29297,12.96093 -9.20824,2.54937 -14.98994,-7.49931 -21.261722,-12.33398 -5.07334,-4.40393 -9.986,-10.9566 -7.21289,-17.95898 5.04271,-26.54441 20.241498,-33.55926 36.945312,-48.5918 -8.92725,-5.3943 -19.70088,-8.81276 -29.762582,-12.32089 -19.8263,-5.93843 -40.80473,-7.52861 -61.40343,-7.93497 z m 60.46875,114.70898 c 4.57059,0.86378 7.590592,7.0083 3.23633,10.17578 -2.45708,1.52667 -3.98246,6.54522 0.50195,5.83203 6.501762,0.13255 5.500142,8.72972 5.769532,13.21876 0.26902,20.58526 -11.082812,41.08178 -29.501952,50.57226 -10.70293,6.32556 -23.58576,12.98029 -36.20117,8.35938 -11.36703,-3.12591 -20.75758,-12.72982 -22.39063,-24.58594 -2.59706,-10.70084 -1.86308,-21.74857 0.74219,-32.40039 -9.36539,-5.77033 -21.05368,-8.4541 -29.55664,-15.84571 14.08278,-0.2606 27.17802,7.76086 41.48006,6.35811 23.74403,-0.42845 44.16381,-13.96568 65.80705,-21.69014 z"
         style="fill:#404040;stroke:#000000;stroke-width:0;stroke-miterlimit:4;stroke-dasharray:none;stroke-opacity:1" />
      <g
         style="fill:#000000"
         transform="translate(-435,-2)"
         id="g1041">
        <path
           id="path1043"
           d="m -126.82261,706.76145 c -4.10017,-1.56446 -7.43373,-4.03272 -13.09769,-9.6979 -6.92401,-6.92551 -7.83083,-8.30866 -10.22708,-15.59932 -5.70804,-17.36691 -6.1129,-20.37798 -5.8627,-43.60323 1.39587,-18.50115 -4.15296,-38.06618 -1.84215,-54.83233 1.90731,-9.20304 7.25454,-18.49222 15.06234,-21.57104 2.83392,-1.09637 5.34109,-2.29635 5.5715,-2.66663 0.23041,-0.37028 -0.45796,-2.17028 -1.5297,-4 -2.84638,-4.85947 -13.34725,-30.03648 -16.40248,-39.32677 -5.11867,-15.56478 -8.66966,-37.35414 -8.67702,-53.24342 -0.003,-5.91612 0.69222,-18.85658 1.54436,-28.75658 2.23291,-25.94134 7.31372,-45.44836 18.62295,-71.5 17.78036,-41.35251 24.04615,14.45492 28.67794,23.72726 7.96441,15.93087 15.35145,26.30634 27.47413,38.58876 22.60238,22.90021 40.24898,36.3822 52.58687,40.17634 1.95783,0.60207 2.2868,0.44012 1.78139,-0.87696 -1.06334,-2.771 0.32886,-4.47371 5.663,-6.92609 2.83489,-1.30334 10.10434,-5.63898 16.15434,-9.63475 6.05,-3.99577 16.03226,-9.73222 22.18281,-12.74767 9.44866,-4.63242 11.34829,-5.95735 12.25,-8.54398 1.6368,-4.69535 1.27566,-12.54029 -0.93281,-20.26291 -1.1,-3.8465 -2,-9.3081 -2,-12.13689 0,-4.60816 0.54621,-5.90502 5.25,-12.46502 6.76884,-9.43995 12.75497,-13.36254 20.09608,-13.16853 7.50374,0.19831 16.55262,3.381 22.74063,7.99837 2.97731,2.22161 6.98829,4.81904 8.91329,5.77207 1.925,0.95303 5.84319,3.4804 8.70709,5.61639 5.9818,4.46141 6.94173,4.61169 12.03173,1.88361 2.05236,-1.1 4.18966,-2 4.74957,-2 2.49651,0 10.99542,-7.4032 19.55196,-17.03123 5.11704,-5.75783 11.9263,-13.24232 15.13168,-16.63222 5.80805,-6.14238 6.99884,-8.33655 4.52428,-8.33655 -0.71704,0 -5.4232,-2.04396 -10.45815,-4.54213 -10.77988,-5.34863 -13.60548,-8.3005 -21.17006,-22.11613 -7.02492,-12.83003 -8.04182,-17.00484 -8.05623,-33.0745 -1.15014,-9.84013 0.47841,-14.25424 4.5357,-22.70693 3.66469,-7.63476 4.76356,-11.22814 5.65993,-18.50834 1.01414,-8.23669 0.91277,-9.84792 -1.14837,-18.25227 l -2.2607,-9.21809 2.19363,-1.77629 c 2.66385,-2.15706 5.26519,-1.11237 7.2072,2.89439 0.71539,1.47599 3.14246,3.83487 5.39349,5.24196 9.04509,5.65394 11.13923,7.25567 16.72458,12.79201 3.19954,3.17147 7.74429,8.69132 10.09945,12.26632 4.96052,7.52983 12.14712,23.77508 15.92573,36 3.51668,11.37748 7.58776,18.16794 13.21223,22.03768 l 4.57852,3.15011 11.4234,-8.8439 c 13.93559,-10.78881 22.93649,-15.77617 34.29223,-19.00118 36.24082,-10.29231 42.50475,-11.28399 59.93012,-9.48788 6.44653,0.66448 15.32096,2.14083 19.72096,3.28078 4.4,1.13996 10.475,2.64315 13.5,3.34044 8.06944,1.86005 20.91322,6.40268 25.5,9.0189 2.2,1.25485 5.58939,2.55881 7.53197,2.8977 1.94258,0.33889 5.00785,1.96418 6.81172,3.61176 4.96599,4.53573 5.00948,4.52239 18.28047,-5.60809 7.63162,-5.82563 33.86274,-34.57352 33.88142,-37.13219 0.0217,-2.9713 2.58919,-8.87195 5.1093,-11.74219 3.96097,-4.5113 12.46472,-7.7897 16.90345,-6.51669 11.86758,3.40358 17.66468,18.79848 11.58976,30.77799 -1.31556,2.59422 -3.39008,5.61676 -4.61005,6.71676 -2.48415,2.23986 -9.81092,13.25909 -13.13118,19.74889 -2.65185,5.18331 -2.74483,11.5954 -0.35167,24.25111 0.96767,5.11733 1.46366,11.01556 1.14969,13.67205 -1.29206,10.93213 -9.70312,21.00854 -25.85028,30.9685 l -9.6854,5.9742 1.46419,4.14993 c 0.8053,2.28247 2.76324,6.19415 4.35098,8.69263 3.46736,5.45626 4.48665,9.12984 6.53226,23.54269 0.85867,6.05 2.41167,13.925 3.4511,17.5 5.14974,17.71193 6.15953,26.45065 6.37074,55.13227 -0.23597,14.39822 2.8515,22.25969 -3.6069,34.70879 -2.09463,4.03758 -6.82768,11.91258 -10.51789,17.5 -3.69021,5.58742 -7.4449,11.95894 -8.34377,14.15894 -0.89887,2.2 -3.30062,7.825 -5.33723,12.5 -2.03661,4.675 -4.6045,11.65 -5.70641,15.5 -2.80529,9.80146 -3.37297,10.76454 -8.681,14.72735 -6.15891,4.59805 -9.84912,6.45728 -16.30473,8.21478 -2.9153,0.79367 -9.57554,2.63784 -14.80054,4.09815 -5.225,1.46032 -12.09212,3.28201 -15.26027,4.04821 -6.02664,1.45751 -13.64941,4.98805 -24.96217,11.56141 -3.69734,2.14837 -11.34734,5.42541 -17,7.28232 -10.54121,3.46281 -16.1404,5.53029 -35.27756,13.02615 -23.23905,9.10253 -53.44727,19.54676 -63.75101,22.04137 -5.91305,1.43159 -15.36305,4.30498 -21,6.38531 -41.9941,15.49807 -94.0487,31.5929 -112.24899,34.70641 -4.4,0.7527 -14.81778,1.37755 -23.15063,1.38855 -10.28424,0.0136 -18.79605,0.63908 -26.5,1.94741 -14.28509,2.42598 -20.42326,2.96374 -45.84937,4.0168 -12.466,0.51629 -22.85141,1.45417 -26.5,2.39313 -10.47963,2.69692 -28.57189,4.68801 -42,4.62217 -10.68397,-0.0524 -13.97986,-0.4376 -18.5,-2.1623 z m 28.5,-9.79769 c 11.68664,-0.9403 24.83462,-3.00213 35.5,-5.56703 3.86636,-0.92982 14.46846,-1.87571 26.16668,-2.33453 l 19.66668,-0.77136 6.83332,-4.52389 c 17.39911,-11.51879 20.70554,-13.32105 36.33332,-19.80451 2.475,-1.0268 9.75751,-4.14645 16.18335,-6.93256 6.42583,-2.78611 12.27583,-5.06599 13,-5.0664 0.72416,-4.2e-4 7.39165,-2.96712 14.81665,-6.59267 14.02478,-6.84816 38.12399,-16.01742 49.77143,-18.93702 17.2887,-4.33367 39.00926,-15.10479 48.08757,-23.8464 6.5297,-6.28753 9.141,-10.61275 9.141,-15.1407 0,-4.59225 2.70733,-8.48246 5.90324,-8.48246 4.75408,0 5.55922,1.97448 4.18883,10.2725 -0.65616,3.97323 -2.28582,9.08876 -3.62146,11.36786 -3.70105,6.31537 -14.75416,15.81412 -24.35259,20.92797 -10.53691,5.61385 -27.98828,12.89554 -34.6737,14.46782 -11.29434,2.6562 -35.9644,11.73337 -50.57473,18.6086 -8.59672,4.04539 -16.12139,7.35525 -16.72148,7.35525 -0.6001,0 -3.69141,1.17623 -6.8696,2.61385 -5.79152,2.61974 -38.15689,15.86295 -48.04704,19.65982 -2.89769,1.11243 -5.14769,2.12453 -5,2.24911 0.14769,0.12457 4.09353,-0.37436 8.76853,-1.10875 4.675,-0.73438 17.95,-1.76772 29.5,-2.2963 18.93952,-0.86675 22.3246,-1.30283 34.5,-4.44438 18.8133,-4.85429 46.02338,-13.20072 76,-23.31227 14.025,-4.73083 32.025,-10.30925 40,-12.39649 7.975,-2.08723 18.1,-5.12995 22.5,-6.7616 4.4,-1.63164 16.775,-6.22366 27.5,-10.20447 35.20647,-13.06764 43.42865,-15.98721 49.18303,-17.46417 3.12567,-0.80226 12.15231,-4.78536 20.0592,-8.85132 12.29045,-6.32013 16.32621,-7.85544 27.81698,-10.58229 7.39243,-1.75429 15.46579,-3.79839 17.94079,-4.54243 2.475,-0.74404 6.68949,-1.92208 9.36554,-2.61787 2.67605,-0.69578 6.99112,-2.94524 9.58905,-4.99878 3.99254,-3.15592 4.98384,-4.66152 6.40573,-9.72909 1.92272,-6.85254 14.32059,-34.19722 18.36297,-40.50131 1.48522,-2.31619 3.94023,-5.83227 5.45557,-7.81352 1.51534,-1.98124 4.67059,-6.93124 7.01167,-11 5.01017,-6.26236 4.38635,-12.22143 4.59298,-19.89774 0.404,-15.00791 -1.26098,-46.34159 -2.8694,-54 -0.63531,-3.025 -2.02192,-8.425 -3.08136,-12 -1.05944,-3.575 -2.78678,-12.575 -3.83854,-20 -1.73116,-12.22143 -2.34234,-14.32504 -6.45324,-22.21137 -2.49753,-4.79125 -4.54097,-9.37719 -4.54097,-10.19098 0,-2.63485 -1.54449,-2.56522 -9.08697,0.40967 -4.07717,1.60811 -8.53803,2.93933 -9.91303,2.95826 -1.375,0.0189 -6.15268,1.86076 -10.61707,4.09295 -5.23242,2.61621 -10.03005,4.24827 -13.5,4.59242 l -5.38293,0.53388 -6.5,-6.37918 c -3.575,-3.50855 -8.02152,-7.62074 -9.88114,-9.13821 -4.6607,-3.80314 -7.09834,-8.8948 -6.45565,-13.48429 0.85619,-6.11401 6.31711,-21.87506 8.89604,-25.67533 4.12615,-12.43999 13.3112,-12.66805 19.49938,-19.07023 1.32399,-1.40932 3.87743,-3.47102 5.67431,-4.58156 1.79688,-1.11053 3.26706,-2.40052 3.26706,-2.86663 0,-0.46612 -2.5875,-1.59476 -5.75,-2.50809 -3.1625,-0.91333 -6.425,-2.2618 -7.25,-2.99659 -1.817,-1.61832 -17.85335,-6.80808 -27.5,-8.89967 -10.71119,-2.32241 -33.14594,-4.58505 -45.46214,-4.58505 -9.16416,0 -13.49636,0.58787 -25.29782,3.43285 -29.0401,3.22459 -44.87307,21.01005 -64.52529,34.99799 -7.39155,5.08421 -28.70917,26.54786 -42.71475,43.00734 -15.63195,18.37082 -24.10436,26.61724 -30.85662,30.03357 -3.1828,1.61035 -6.26295,3.85048 -6.84478,4.97808 -2.5826,5.00508 -17.06561,23.38349 -20.98074,26.62378 -9.16585,7.58597 -19.54336,13.44341 -27.47981,15.51059 -7.31078,1.90421 -11.61422,1.77421 -19.33805,-0.5842 -3.575,-1.0916 -7.52068,-1.98816 -8.76819,-1.99236 -3.02775,-0.0102 -22.52535,10.212 -33.73181,17.68491 -4.95,3.30086 -10.125,6.58134 -11.5,7.28996 -1.375,0.70862 -2.63873,1.40368 -2.8083,1.54457 -0.16956,0.1409 0.89114,3.1059 2.35711,6.58889 2.35915,5.60509 2.59037,7.13994 2.01241,13.35837 -1.43734,15.46463 -4.48388,19.70755 -26.58118,37.01971 -6.31402,4.94673 -13.95504,11.27495 -16.98004,14.06272 -9.95448,9.17383 -27.62973,20.13993 -46.24618,28.69213 -8.9515,4.11222 -9.59686,4.25379 -19.75382,4.33346 -12.30022,0.0965 -13.77612,0.75522 -17.659,7.88169 -2.54957,4.67937 -2.74121,5.85022 -2.70653,16.53595 0.0205,6.325 0.62027,14.2 1.33275,17.5 0.95727,4.43372 1.11685,10.97234 0.61133,25.04769 -0.6053,16.85336 -0.45795,20.07901 1.27906,28 3.28786,14.99315 5.47339,19.6175 12.22615,25.86937 9.09514,8.42049 13.43981,9.35067 35.41624,7.58247 z M 275.66587,485.94752 c -10.63265,-2.114 -18.97056,-7.8465 -24.08122,-16.55638 -3.69745,-6.3014 -6.11132,-23.69516 -4.55107,-32.79385 0.65976,-3.84742 1.65142,-7.53977 2.20369,-8.20521 0.72994,-0.87952 0.20477,-1.48855 -1.92329,-2.23039 -6.29377,-2.19402 -27.09119,-12.77096 -27.60231,-14.0377 -1.74055,-4.31376 4.27912,-4.14749 19.75054,0.54553 14.56182,4.41711 23.099,4.73517 37.21518,1.38646 14.12187,-3.35004 20.31962,-5.68472 34.88633,-13.14156 7.46735,-3.8226 14.7307,-6.95019 16.14079,-6.95019 3.33868,0 7.47288,4.17871 7.47288,7.55334 0,1.65542 -1.13499,3.70448 -3.03513,5.47947 l -3.03512,2.83523 3.18625,0.31598 c 5.18039,0.51374 6.96747,3.95161 6.98833,13.44369 0.01,4.41906 -0.6903,11.08732 -1.55559,14.81834 -2.28311,9.84459 -9.69815,23.61076 -15.51336,28.80088 -6.56487,5.85919 -25.27809,16.34735 -32.49548,18.21269 -6.47103,1.67243 -7.98904,1.729 -14.05142,0.52367 z m 30.07642,-25.73329 c 6.26888,-4.29369 7.32848,-5.53441 11.03005,-12.91538 4.5352,-9.04322 6.40505,-16.56896 6.40505,-25.7789 0,-3.9122 0.56007,-6.91032 1.5567,-8.33321 0.85619,-1.22238 1.2972,-2.22251 0.98002,-2.22251 -0.31718,0 -4.71386,2.07781 -9.7704,4.61736 -5.05655,2.53955 -11.39009,5.26962 -14.07454,6.06681 -4.57444,1.35847 -4.7805,1.56032 -3.28254,3.21554 5.33936,5.89993 5.89949,21.0255 1.23501,33.35029 -1.40504,3.7125 -2.20808,6.75 -1.78454,6.75 0.42355,0 3.89088,-2.1375 7.70519,-4.75 z m -47.62542,-12.25 c 0.10702,-3.34199 4.09591,-11.7251 7.49424,-15.75 l 2.74407,-3.25 -3.3389,-0.011 c -1.83639,-0.006 -4.91389,-0.2702 -6.83889,-0.587 l -3.5,-0.57598 -0.2857,8.33699 c -0.31723,9.25728 1.52931,19.75381 2.87087,16.31922 0.42584,-1.09023 0.81028,-3.10723 0.85431,-4.48223 z m 36.23178,-0.65499 c 3.79719,-3.43641 0.85772,-11.34501 -4.21671,-11.34501 -2.33119,0 -6.95455,4.20131 -6.95455,6.31969 0,0.77582 0.93266,2.59628 2.07258,4.04545 2.39895,3.04977 6.34221,3.47444 9.09868,0.97987 z m -404.67126,112.13833 c 6.05,-3.03497 15.52232,-8.34418 21.04959,-11.79824 18.673177,-11.8271 35.176743,-28.55245 50.32573,-40.31168 8.36835,-6.47593 11.25249,-11.42745 11.89614,-20.42342 0.47576,-6.64931 0.43432,-6.79159 -2.39366,-8.21789 -1.58279,-0.79829 -4.14152,-1.75474 -5.68607,-2.12545 -4.84261,-1.16228 -20.4144,-10.36856 -28.46789,-16.83065 -4.24811,-3.40867 -14.62872,-13.19023 -23.06801,-21.7368 -20.68726,-20.95022 -31.50998,-37.30109 -44.32228,-66.96171 l -1.91036,-4.4225 -3.0298,6.4065 c -3.63985,7.69646 -6.21576,15.18678 -9.60156,27.91973 -3.62929,13.64867 -3.94389,15.56436 -5.83292,35.51877 -3.06852,32.41384 -0.73485,57.96456 7.48529,81.95434 6.90243,20.14415 9.33222,26.96317 12.71001,35.66964 1.84019,4.7432 1.57802,5.69964 1.57802,6.66269 0,2.7181 6.62777,5.0375 19.26777,-1.30333 z M 51.7125,434.64908 c 13.3733,-4.44532 24.6113,-13.50757 35.8818,-28.93485 l 5.66182,-7.75 h -3.19505 c -3.14442,0 -5.40898,-1.30357 -24.73163,-14.23652 -7.63531,-5.11043 -14.35885,-7.73411 -19.86725,-7.75266 -3.9149,-0.0132 -8.79794,3.99701 -13.17756,10.82206 -2.90226,4.52278 -3.01477,5.06802 -2.10944,10.22236 0.52599,2.99462 1.40593,7.24476 1.95542,9.44476 1.50282,6.01688 1.24506,16.84607 -0.52507,22.05987 -0.86451,2.54637 -1.29603,4.90559 -0.95892,5.24269 0.33711,0.33711 3.63194,1.1513 7.32185,1.8093 3.68991,0.65801 6.72472,1.23952 6.74403,1.29226 0.0193,0.0527 3.16932,-0.94594 7,-2.21927 z m 305.96489,-70.68485 c 4.5208,-2.29813 9.29001,-4 11.20932,-4 1.83735,0 5.90131,-0.9 9.031,-2 3.1297,-1.1 6.70935,-2 7.95478,-2 3.53278,0 10.50176,-3.02343 13.8049,-5.98913 1.65,-1.48144 4.575,-3.73552 6.5,-5.00906 9.16549,-6.06371 15.01566,-13.95573 14.98264,-20.21197 -0.01,-1.80941 -0.69379,-6.43984 -1.52054,-10.28984 -0.82674,-3.85 -1.56129,-10.6 -1.63233,-15 -0.11482,-7.11217 0.21657,-8.68288 2.98607,-14.1532 3.45755,-6.82937 8.51673,-14.11972 14.91928,-21.49891 2.32932,-2.68463 4.52173,-6.02309 4.87203,-7.4188 1.72775,-6.88388 -2.72662,-15.07722 -7.58062,-13.94376 -8.37656,7.89533 -7.55611,19.15876 -10.49781,30.51467 -1.48226,5.775 -3.47563,11.85 -4.42971,13.5 -0.95408,1.65 -3.02321,6.375 -4.59807,10.5 -2.55073,6.68106 -3.90821,8.54291 -12.43216,17.05125 -10.99277,10.97263 -26.5603,20.94124 -39.76577,25.46386 -4.29166,1.46981 -9.83276,3.90973 -12.31356,5.42206 -2.48081,1.51232 -6.11908,3.28054 -8.08506,3.92937 -1.96597,0.64883 -4.78614,2.44437 -6.26704,3.9901 l -2.69254,2.8104 7.2776,6.09525 c 4.00267,3.35239 7.98214,6.1273 8.84325,6.16648 0.86112,0.0392 5.10657,-1.72877 9.43434,-3.92877 z M 334.54014,347.3911 c 5.7735,-4.73536 15.92297,-10.58594 23.27639,-13.41749 4.00644,-1.54274 10.33914,-4.78964 14.07265,-7.21531 3.73352,-2.42568 9.5508,-6.18417 12.9273,-8.3522 3.3765,-2.16803 9.07667,-7.11854 12.66705,-11.00114 5.1913,-5.61383 7.2794,-8.88996 10.19787,-16 5.05938,-12.32578 6.16057,-15.39765 6.96902,-19.44073 0.6514,-3.25762 -0.18909,-2.59972 -12.13658,9.5 -7.06005,7.15 -16.32301,15.475 -20.58436,18.5 -3.34949,1.3313 -5.93022,5.68722 -8.70196,7 -0.52243,0 -2.88493,1.30097 -5.25,2.89105 -2.36507,1.59008 -5.96343,3.58201 -7.99635,4.42651 -2.03292,0.84449 -6.59189,4.22928 -10.13105,7.52175 -3.53916,3.29247 -7.77976,6.6818 -9.42356,7.53184 -2.87955,1.48907 -5.54742,6.62672 -9.02445,17.37885 -1.26827,3.9219 -0.91208,3.99873 3.13803,0.67687 z m -172.45848,-19.87147 12.96051,-11.9446 -3.88089,-2.85404 c -5.92704,-4.3588 -11.15653,-13.74007 -14.91961,-26.76456 -2.87416,-9.94784 -8.83563,-26.51081 -11.33492,-31.4922 -3.65509,-7.28507 -10.46469,-15.92028 -17.34153,-21.99068 -3.82123,-3.37312 -6.46039,-5.14078 -6.04011,-4.04556 0.41053,1.06982 0.99746,5.34062 1.3043,9.49068 0.7189,9.72345 -1.28468,18.3543 -6.60662,28.45935 -3.83566,7.28298 -4.0454,8.13585 -4.0454,16.45006 0,4.82285 0.49109,11.43898 1.09132,14.70249 1.20535,6.55363 9.33562,23.30114 13.45616,27.71826 2.99644,3.21212 20.41951,14.89769 21.60317,14.48914 0.43621,-0.15056 6.62534,-5.64881 13.75362,-12.21834 z"
           style="fill:#000000;fill-opacity:1" />
      </g>
    </g>
  </g>
</svg>
